STARTFONT 2.1
FONT -FontForge-Alfphabet-Book-R-Normal--45-430-75-75-P-317-ISO10646-1
SIZE 43 75 75
FONTBOUNDINGBOX 61 52 0 -9
COMMENT "Generated by fontforge, http://fontforge.sourceforge.net"
COMMENT "Copyright (c) 2007-2010, OSP (http://ospublish.constantvzw.org)"
COMMENT "The Alfphabet family is based on the Belgian road signage (1945-1975, originally from 3M system working for the Marshall plan after the end of the war)."
COMMENT "Alfphabet IV was redrawn by Pierre Huyghebaert and Ludi at Speculoos studio in 2007."
COMMENT ""
STARTPROPERTIES 39
FOUNDRY "FontForge"
FAMILY_NAME "Alfphabet"
WEIGHT_NAME "Book"
SLANT "R"
SETWIDTH_NAME "Normal"
ADD_STYLE_NAME ""
PIXEL_SIZE 45
POINT_SIZE 430
RESOLUTION_X 75
RESOLUTION_Y 75
SPACING "P"
AVERAGE_WIDTH 317
CHARSET_REGISTRY "ISO10646"
CHARSET_ENCODING "1"
FONTNAME_REGISTRY ""
CHARSET_COLLECTIONS "ISO10646-1"
FONT_NAME "Alfphabet-IV"
FACE_NAME "Alfphabet IV"
COPYRIGHT "Copyright (c) 2007-2010, OSP (http://ospublish.constantvzw.org)"
FONT_VERSION "001.000"
FONT_ASCENT 36
FONT_DESCENT 9
UNDERLINE_POSITION -4
UNDERLINE_THICKNESS 3
X_HEIGHT 31
CAP_HEIGHT 31
RAW_ASCENT 800
RAW_DESCENT 200
NORM_SPACE 32
RELATIVE_WEIGHT 40
RELATIVE_SETWIDTH 80
SUPERSCRIPT_X 0
SUPERSCRIPT_Y 21
SUPERSCRIPT_SIZE 29
SUBSCRIPT_X 0
SUBSCRIPT_Y 6
SUBSCRIPT_SIZE 29
AVG_LOWERCASE_WIDTH 348
AVG_UPPERCASE_WIDTH 350
ENDPROPERTIES
CHARS 179
STARTCHAR space
ENCODING 32
SWIDTH 701 0
DWIDTH 32 0
BBX 1 1 0 0
BITMAP
00
ENDCHAR
STARTCHAR exclam
ENCODING 33
SWIDTH 273 0
DWIDTH 12 0
BBX 6 32 3 0
BITMAP
FC
FC
FC
FC
FC
FC
FC
FC
FC
FC
FC
FC
FC
FC
FC
FC
FC
FC
7C
7C
7C
7C
7C
00
00
00
00
7C
7C
7C
7C
7C
ENDCHAR
STARTCHAR quotedbl
ENCODING 34
SWIDTH 440 0
DWIDTH 20 0
BBX 14 8 3 24
BITMAP
FCFC
FCFC
FCFC
FCFC
FCFC
FCFC
FCFC
FCFC
ENDCHAR
STARTCHAR numbersign
ENCODING 35
SWIDTH 656 0
DWIDTH 30 0
BBX 23 32 3 0
BITMAP
01F0F0
01F0F0
01E0F0
01E0F0
01E1F0
03E1F0
03E1F0
03E1E0
03C1E0
7FFFFE
7FFFFE
7FFFFE
7FFFFE
07C3E0
07C3E0
07C3C0
0783C0
0783C0
0783C0
FFFFFC
FFFFFC
FFFFFC
FFFFFC
0F8780
0F0780
0F0780
0F0780
0F0F80
1F0F80
1F0F80
1F0F00
1E0F00
ENDCHAR
STARTCHAR dollar
ENCODING 36
SWIDTH 855 0
DWIDTH 38 0
BBX 32 42 3 -5
BITMAP
0003E000
0003E000
0003E000
0003E000
0003E000
01FFFFC0
07FFFFF0
1FFFFFF8
3FFFFFFC
3FFFFFFE
7FFFFFFE
7F83E0FF
FE03E07F
FE03E03F
FC03E03F
FE03E000
FE03E000
FF03E000
7FFFFFC0
7FFFFFF0
3FFFFFF8
1FFFFFFC
0FFFFFFE
03FFFFFE
0003E0FF
0003E07F
0003E03F
FC03E03F
FE03E03F
FE03E07F
7F83E1FF
7FFFFFFE
7FFFFFFE
3FFFFFFC
1FFFFFF8
0FFFFFF0
03FFFFC0
0003E000
0003E000
0003E000
0003E000
0003E000
ENDCHAR
STARTCHAR percent
ENCODING 37
SWIDTH 1040 0
DWIDTH 47 0
BBX 41 34 3 -1
BITMAP
03F0000E0000
0FFC000E0000
1FFE001C0000
3FFF001C0000
7FFF80380000
7E1F80700000
FC0FC0700000
F80FC0E00000
F807C0E00000
F807C1C00000
FC0FC1C00000
FE1F83800000
7FFF87000000
7FFF07000000
3FFF0E000000
1FFE0E000000
07F81C018000
00C01C0FF000
0000383FFC00
0000707FFE00
000070FFFE00
0000E0FFFF00
0000E1F83F00
0001C1F81F80
000381F01F80
000381F00F80
000701F01F80
000701F81F00
000E00FC7F00
000E00FFFF00
001C007FFE00
0038003FFC00
0038001FF800
00700007E000
ENDCHAR
STARTCHAR ampersand
ENCODING 38
SWIDTH 1040 0
DWIDTH 47 0
BBX 41 32 3 0
BITMAP
01FF00000000
07FFC0000000
1FFFF0000000
3FFFF8000000
3FFFF83F0000
7FFFFC3F0000
7F83FC3F0000
FE00FE3F0000
FE00FE3F0000
FE00FE3F0000
FE00003F0000
FE00003F0000
7F80003F0000
7FFF003FFF80
7FFF003FFF80
3FFF003FFF80
3FFF003FFF80
3FFF003FFF80
7FFF003FFF80
7F00003F0000
FE00003F0000
FE00003F0000
FE00003F0000
FE00003F8000
FE00007F8000
7F8000FFE000
7FFFFFFFF000
3FFFFFFFF000
3FFFFFFFF000
1FFFFFFFF000
07FFFFF3F000
01FFFFC0F000
ENDCHAR
STARTCHAR quotesingle
ENCODING 39
SWIDTH 260 0
DWIDTH 12 0
BBX 6 8 3 24
BITMAP
FC
FC
FC
FC
FC
F8
E0
80
ENDCHAR
STARTCHAR parenleft
ENCODING 40
SWIDTH 430 0
DWIDTH 19 0
BBX 13 38 3 -4
BITMAP
0078
01F0
03E0
03E0
07C0
0FC0
0F80
1F80
1F00
3F00
3F00
7F00
7E00
7E00
7E00
FE00
FE00
FE00
FE00
FE00
FE00
FE00
FE00
7E00
7E00
7E00
7F00
3F00
3F00
3F00
1F80
1F80
0FC0
0FC0
07E0
03E0
01F0
00F8
ENDCHAR
STARTCHAR parenright
ENCODING 41
SWIDTH 430 0
DWIDTH 19 0
BBX 13 38 3 -4
BITMAP
F800
7C00
3E00
3F00
1F00
0F80
0FC0
0FC0
07E0
07E0
07E0
03F0
03F0
03F0
03F8
03F8
03F8
01F8
01F8
01F8
01F8
01F8
03F8
03F8
03F0
03F0
03F0
07F0
07E0
07E0
07C0
0FC0
0F80
1F80
1F00
3E00
3C00
7C00
ENDCHAR
STARTCHAR asterisk
ENCODING 42
SWIDTH 514 0
DWIDTH 23 0
BBX 16 16 4 16
BITMAP
03C0
03C0
03C4
738C
FB9E
FFFF
7FFE
1FF0
0FF0
7FFC
FFFF
FBBE
738E
63C4
03C0
03C0
ENDCHAR
STARTCHAR plus
ENCODING 43
SWIDTH 620 0
DWIDTH 28 0
BBX 22 22 3 3
BITMAP
007800
007800
007800
007800
007800
007800
007800
007800
007800
FFFFFC
FFFFFC
FFFFFC
FFFFFC
007800
007800
007800
007800
007800
007800
007800
007800
007800
ENDCHAR
STARTCHAR comma
ENCODING 44
SWIDTH 222 0
DWIDTH 10 0
BBX 6 7 3 -2
BITMAP
FC
FC
FC
FC
FC
F0
C0
ENDCHAR
STARTCHAR hyphen
ENCODING 45
SWIDTH 614 0
DWIDTH 28 0
BBX 22 5 3 12
BITMAP
FFFFFC
FFFFFC
FFFFFC
FFFFFC
FFFFFC
ENDCHAR
STARTCHAR period
ENCODING 46
SWIDTH 257 0
DWIDTH 12 0
BBX 6 5 3 0
BITMAP
FC
FC
FC
FC
FC
ENDCHAR
STARTCHAR slash
ENCODING 47
SWIDTH 592 0
DWIDTH 27 0
BBX 25 34 1 -1
BITMAP
00003F80
00003F00
00007F00
00007E00
0000FE00
0001FC00
0001FC00
0003F800
0003F800
0007F000
0007E000
000FE000
001FC000
001FC000
003F8000
003F8000
007F0000
007E0000
00FE0000
01FC0000
01FC0000
03F80000
03F80000
07F00000
07E00000
0FE00000
1FC00000
1FC00000
3F800000
3F800000
7F000000
7F000000
FE000000
FC000000
ENDCHAR
STARTCHAR zero
ENCODING 48
SWIDTH 832 0
DWIDTH 37 0
BBX 32 32 3 0
BITMAP
00FFFF00
07FFFFC0
0FFFFFF0
1FFFFFF8
3FFFFFFC
7FFFFFFC
7FC007FE
FF0000FE
FE0000FE
FC00007F
FC00007F
FC00007F
FC00007F
FC00007F
FC00007F
FC00007F
FC00007F
FC00007F
FC00007F
FC00007F
FC00007F
FC00007F
FE00007F
FE0000FE
FF0000FE
7FE007FE
7FFFFFFC
3FFFFFFC
1FFFFFF8
0FFFFFF0
07FFFFC0
00FFFF00
ENDCHAR
STARTCHAR one
ENCODING 49
SWIDTH 338 0
DWIDTH 15 0
BBX 11 32 1 0
BITMAP
0FE0
1FE0
3FE0
7FE0
FFE0
FFE0
FFE0
FFE0
FFE0
F7E0
E7E0
C7E0
87E0
07E0
07E0
07E0
07E0
07E0
07E0
07E0
07E0
07E0
07E0
07E0
07E0
07E0
07E0
07E0
07E0
07E0
07E0
07E0
ENDCHAR
STARTCHAR two
ENCODING 50
SWIDTH 839 0
DWIDTH 38 0
BBX 32 32 3 0
BITMAP
07FFFFE0
1FFFFFF8
3FFFFFFC
7FFFFFFC
7FFFFFFE
FFFFFFFF
FE0000FF
FC00007F
0000007F
000000FF
000001FE
000007FE
00000FFC
00003FFC
00007FF0
0001FFE0
0003FF80
000FFF00
001FFC00
007FF800
00FFE000
03FFC000
07FF0000
1FFE0000
3FF80000
FFF00000
FFFFFFFF
FFFFFFFF
FFFFFFFF
FFFFFFFF
FFFFFFFF
FFFFFFFF
ENDCHAR
STARTCHAR three
ENCODING 51
SWIDTH 829 0
DWIDTH 37 0
BBX 33 32 2 0
BITMAP
01FFFFC000
07FFFFF000
0FFFFFFC00
1FFFFFFE00
3FFFFFFE00
7FFFFFFF00
7F8000FF00
7F00007F00
FE00003F80
FE00003F80
0000003F80
0000003F00
000000FF00
0000FFFF00
0000FFFE00
0000FFFE00
0000FFFE00
0000FFFE00
0000FFFF00
000000FF00
0000003F00
0000003F80
FE00003F80
FE00003F80
7F00007F00
7F8000FF00
7FFFFFFF00
3FFFFFFE00
1FFFFFFC00
0FFFFFF800
07FFFFF000
01FFFFC000
ENDCHAR
STARTCHAR four
ENCODING 52
SWIDTH 780 0
DWIDTH 35 0
BBX 32 32 1 0
BITMAP
000007F8
00000FF8
00001FF8
00003FF8
00007FF8
0000FFF8
0001FFF8
0003FFF8
0007FFF8
000FFFF8
001FFBF8
003FF3F8
007FE3F8
00FFC3F8
01FF83F8
03FF03F8
07FE03F8
0FFC03F8
1FF803F8
3FF003F8
7FE003F8
FFC003F8
FFFFFFFF
FFFFFFFF
FFFFFFFF
FFFFFFFF
FFFFFFFF
FFFFFFFF
FFFFFFFF
000003F8
000003F8
000003F8
ENDCHAR
STARTCHAR five
ENCODING 53
SWIDTH 831 0
DWIDTH 37 0
BBX 32 32 3 0
BITMAP
FFFFFFFF
FFFFFFFF
FFFFFFFF
FFFFFFFF
FFFFFFFF
FFFFFFFF
FFFFFFFF
FC000000
FC000000
FC000000
FFFFFF80
FFFFFFE0
FFFFFFF0
FFFFFFF8
7FFFFFFC
3FFFFFFC
000003FE
000000FE
0000007E
0000007F
0000007F
FC00007F
FC00007F
FE0000FE
FF0000FE
7FC007FE
7FFFFFFC
3FFFFFF8
1FFFFFF8
0FFFFFF0
07FFFFC0
01FFFF00
ENDCHAR
STARTCHAR six
ENCODING 54
SWIDTH 833 0
DWIDTH 37 0
BBX 32 32 3 0
BITMAP
03FFFFC0
0FFFFFF0
1FFFFFF8
3FFFFFFC
7FFFFFFE
7FFFFFFE
FF8001FE
FE00007F
FC00007F
FC00007F
FC000000
FC000000
FC000000
FFFFFFC0
FFFFFFF0
FFFFFFF8
FFFFFFFC
FFFFFFFE
FFFFFFFE
FF0000FF
FE00007F
FC00007F
FC00007F
FC00007F
FE00007F
FF8003FE
7FFFFFFE
7FFFFFFC
3FFFFFFC
1FFFFFF8
0FFFFFE0
03FFFF80
ENDCHAR
STARTCHAR seven
ENCODING 55
SWIDTH 790 0
DWIDTH 36 0
BBX 32 32 3 0
BITMAP
FFFFFFFF
FFFFFFFF
FFFFFFFF
FFFFFFFF
FFFFFFFF
FFFFFFFF
000001FF
000003FE
000007FC
00000FF8
00000FF0
00001FE0
00003FC0
00007F80
0000FF00
0001FF00
0003FE00
0007FC00
000FF800
001FF000
003FE000
007FC000
00FF8000
00FF0000
01FE0000
03FC0000
07F80000
0FF80000
1FF00000
3FE00000
7FC00000
FF800000
ENDCHAR
STARTCHAR eight
ENCODING 56
SWIDTH 824 0
DWIDTH 37 0
BBX 33 32 2 0
BITMAP
01FFFFC000
07FFFFF000
0FFFFFF800
1FFFFFFC00
1FFFFFFC00
3FFFFFFE00
3FC001FE00
3F8000FE00
3F8000FE00
3FC001FE00
3FFFFFFC00
1FFFFFFC00
1FFFFFF800
0FFFFFF800
07FFFFF000
1FFFFFFC00
1FFFFFFE00
3FFFFFFE00
7FFFFFFF00
7F8000FF00
7F00003F00
7E00003F80
FE00003F80
7E00003F80
7F00007F00
7F8000FF00
7FFFFFFF00
3FFFFFFE00
1FFFFFFC00
0FFFFFF800
07FFFFF000
01FFFFC000
ENDCHAR
STARTCHAR nine
ENCODING 57
SWIDTH 831 0
DWIDTH 37 0
BBX 32 32 3 0
BITMAP
03FFFF80
0FFFFFE0
1FFFFFF8
3FFFFFFC
7FFFFFFC
FFFFFFFE
FF0001FE
FE0000FE
FC00007F
FC00007F
FC00007F
FE00007F
FF0001FF
FFFFFFFF
7FFFFFFF
3FFFFFFF
3FFFFFFF
0FFFFFFF
03FFFFFF
0000007F
0000007F
0000007F
FC00007F
FC00007F
FE0000FE
FF8003FE
7FFFFFFE
7FFFFFFC
3FFFFFF8
1FFFFFF0
0FFFFFE0
03FFFF80
ENDCHAR
STARTCHAR colon
ENCODING 58
SWIDTH 257 0
DWIDTH 12 0
BBX 6 17 3 0
BITMAP
FC
FC
FC
FC
FC
00
00
00
00
00
00
00
FC
FC
FC
FC
FC
ENDCHAR
STARTCHAR semicolon
ENCODING 59
SWIDTH 233 0
DWIDTH 10 0
BBX 6 19 3 -2
BITMAP
FC
FC
FC
FC
FC
00
00
00
00
00
00
00
FC
FC
FC
FC
FC
F0
C0
ENDCHAR
STARTCHAR less
ENCODING 60
SWIDTH 610 0
DWIDTH 27 0
BBX 21 28 3 2
BITMAP
000008
000038
0000F8
0001F8
0007F8
001FE0
003FC0
00FF00
03FC00
0FF000
1FE000
7F8000
FE0000
F80000
F80000
FC0000
FF0000
3FC000
0FF000
07F800
01FE00
007F80
001FE0
000FF0
0003F8
0000F8
000038
000018
ENDCHAR
STARTCHAR equal
ENCODING 61
SWIDTH 622 0
DWIDTH 28 0
BBX 22 14 3 7
BITMAP
FFFFFC
FFFFFC
FFFFFC
FFFFFC
FFFFFC
000000
000000
000000
000000
FFFFFC
FFFFFC
FFFFFC
FFFFFC
FFFFFC
ENDCHAR
STARTCHAR greater
ENCODING 62
SWIDTH 610 0
DWIDTH 27 0
BBX 21 29 3 1
BITMAP
C00000
E00000
F80000
FE0000
FF0000
3FC000
0FF000
03FC00
01FE00
007F80
001FE0
0007F8
0003F8
0000F8
000078
0001F8
0007F8
000FF0
003FC0
00FF00
01FC00
07F800
1FE000
7F8000
FF0000
FC0000
F00000
C00000
800000
ENDCHAR
STARTCHAR question
ENCODING 63
SWIDTH 830 0
DWIDTH 37 0
BBX 32 32 3 0
BITMAP
01FFFFC0
07FFFFF0
1FFFFFF8
3FFFFFFC
3FFFFFFE
7FFFFFFE
7F8001FF
FE00007F
FE00003F
FE00003F
0000003F
0000007F
000000FF
00001FFF
00007FFE
0000FFFC
0001FFF8
0003FFF0
0003FFC0
0003F800
0007F000
0007F000
0007F000
0007F000
0007F000
0007F000
00000000
00000000
00000000
00000000
0007E000
0007E000
ENDCHAR
STARTCHAR at
ENCODING 64
SWIDTH 910 0
DWIDTH 41 0
BBX 35 44 3 -6
BITMAP
0003F80000
001FFF0000
007FFFC000
01FFBFF000
03F001F800
07C0007C00
0F80003E00
1F00001F00
1E00FC0F00
3C03FF0780
3807FF8380
7807FF83C0
700F87C1C0
700F03C1C0
F00F03C1E0
F00003C1E0
F00003C1E0
E00003C1E0
E001FFC1E0
E007FFC1E0
E00FFFC1E0
E00FFFC1C0
E01F0FC1C0
E01E07C3C0
E03E03C380
E03C03C780
F03C03CF00
F03C03DF00
F01E03FE00
F01F07FC00
701F9FF800
780FFFF000
7807FFC000
3C03FF0000
3C00F80000
1E00000000
0F00000100
0F80000380
07E00007C0
03F8003F80
00FFFFFF00
007FFFFC00
001FFFF000
00007C0000
ENDCHAR
STARTCHAR A
ENCODING 65
SWIDTH 777 0
DWIDTH 35 0
BBX 31 32 2 0
BITMAP
000FE000
001FF000
001FF000
001FF000
003FF800
003FF800
007FFC00
007FFC00
007FFC00
00FEFE00
00FEFE00
01FC7E00
01FC7F00
01FC7F00
03F83F80
03F83F80
07F01F80
07F01FC0
07F01FC0
0FE00FE0
0FE00FE0
0FFFFFE0
1FFFFFF0
1FFFFFF0
3FFFFFF8
3FFFFFF8
3FFFFFF8
7F0001FC
7F0001FC
FE0000FE
FE0000FE
FE0000FE
ENDCHAR
STARTCHAR B
ENCODING 66
SWIDTH 841 0
DWIDTH 38 0
BBX 32 32 3 0
BITMAP
FFFFFFC0
FFFFFFF0
FFFFFFF8
FFFFFFFC
FFFFFFFE
FFFFFFFE
FC0000FF
FC00007F
FC00003F
FC00003F
FC00003F
FC00007F
FC0000FF
FFFFFFFE
FFFFFFFE
FFFFFFFC
FFFFFFFC
FFFFFFFE
FFFFFFFE
FC0000FF
FC00007F
FC00003F
FC00003F
FC00003F
FC00007F
FC0001FF
FFFFFFFE
FFFFFFFE
FFFFFFFC
FFFFFFF8
FFFFFFF0
FFFFFFC0
ENDCHAR
STARTCHAR C
ENCODING 67
SWIDTH 830 0
DWIDTH 37 0
BBX 32 32 3 0
BITMAP
01FFFF00
07FFFFC0
0FFFFFF0
1FFFFFF8
3FFFFFFC
7FFFFFFC
7FC003FE
FF0000FE
FE00007F
FC00007F
FC00007F
FC000000
FC000000
FC000000
FC000000
FC000000
FC000000
FC000000
FC000000
FC000000
FC000000
FC00007F
FC00007F
FE00007F
FF0000FE
7FE007FE
7FFFFFFC
3FFFFFFC
1FFFFFF8
0FFFFFF0
07FFFFC0
00FFFF00
ENDCHAR
STARTCHAR D
ENCODING 68
SWIDTH 838 0
DWIDTH 38 0
BBX 32 32 3 0
BITMAP
FFFFFF00
FFFFFFC0
FFFFFFF0
FFFFFFF8
FFFFFFFC
FFFFFFFE
FE0007FE
FE0000FE
FE00007F
FE00007F
FE00003F
FE00003F
FE00003F
FE00003F
FE00003F
FE00003F
FE00003F
FE00003F
FE00003F
FE00003F
FE00003F
FE00003F
FE00007F
FE00007F
FE0000FE
FE0007FE
FFFFFFFC
FFFFFFFC
FFFFFFF8
FFFFFFF0
FFFFFFC0
FFFFFF00
ENDCHAR
STARTCHAR E
ENCODING 69
SWIDTH 851 0
DWIDTH 38 0
BBX 32 32 3 0
BITMAP
FFFFFFFF
FFFFFFFF
FFFFFFFF
FFFFFFFF
FFFFFFFF
FFFFFFFF
FC000000
FC000000
FC000000
FC000000
FC000000
FC000000
FC000000
FFFFF000
FFFFF000
FFFFF000
FFFFF000
FFFFF000
FFFFF000
FC000000
FC000000
FC000000
FC000000
FC000000
FC000000
FC000000
FFFFFFFF
FFFFFFFF
FFFFFFFF
FFFFFFFF
FFFFFFFF
FFFFFFFF
ENDCHAR
STARTCHAR F
ENCODING 70
SWIDTH 787 0
DWIDTH 35 0
BBX 32 32 3 0
BITMAP
FFFFFFFF
FFFFFFFF
FFFFFFFF
FFFFFFFF
FFFFFFFF
FFFFFFFF
FC000000
FC000000
FC000000
FC000000
FC000000
FC000000
FC000000
FFFFF000
FFFFF000
FFFFF000
FFFFF000
FFFFF000
FFFFF000
FC000000
FC000000
FC000000
FC000000
FC000000
FC000000
FC000000
FC000000
FC000000
FC000000
FC000000
FC000000
FC000000
ENDCHAR
STARTCHAR G
ENCODING 71
SWIDTH 828 0
DWIDTH 37 0
BBX 32 32 3 0
BITMAP
01FFFF00
07FFFFC0
0FFFFFF0
1FFFFFF8
3FFFFFFC
7FFFFFFC
7FC003FE
FF0000FE
FE00007E
FC00007F
FC00007F
FC000000
FC000000
FC000000
FC00FFFF
FC00FFFF
FC00FFFF
FC00FFFF
FC00FFFF
FC00FFFF
FC00FFFF
FC00007F
FC00007F
FE00007E
FF0000FE
7FC007FE
7FFFFFFC
3FFFFFF8
1FFFFFF8
0FFFFFF0
07FFFFC0
01FFFF00
ENDCHAR
STARTCHAR H
ENCODING 72
SWIDTH 852 0
DWIDTH 38 0
BBX 32 32 3 0
BITMAP
FE00003F
FE00003F
FE00003F
FE00003F
FE00003F
FE00003F
FE00003F
FE00003F
FE00003F
FE00003F
FE00003F
FE00003F
FE00003F
FFFFFFFF
FFFFFFFF
FFFFFFFF
FFFFFFFF
FFFFFFFF
FFFFFFFF
FE00003F
FE00003F
FE00003F
FE00003F
FE00003F
FE00003F
FE00003F
FE00003F
FE00003F
FE00003F
FE00003F
FE00003F
FE00003F
ENDCHAR
STARTCHAR I
ENCODING 73
SWIDTH 279 0
DWIDTH 13 0
BBX 6 32 3 0
BITMAP
FC
FC
FC
FC
FC
FC
FC
FC
FC
FC
FC
FC
FC
FC
FC
FC
FC
FC
FC
FC
FC
FC
FC
FC
FC
FC
FC
FC
FC
FC
FC
FC
ENDCHAR
STARTCHAR J
ENCODING 74
SWIDTH 780 0
DWIDTH 35 0
BBX 32 32 0 0
BITMAP
0000003F
0000003F
0000003F
0000003F
0000003F
0000003F
0000003F
0000003F
0000003F
0000003F
0000003F
0000003F
0000003F
0000003F
0000003F
0000003F
0000003F
0000003F
0000003F
0000003F
0000003F
FE00003F
FE00003F
7E00007F
7F0000FF
7FE003FE
3FFFFFFE
3FFFFFFC
1FFFFFF8
0FFFFFF0
03FFFFE0
00FFFF00
ENDCHAR
STARTCHAR K
ENCODING 75
SWIDTH 830 0
DWIDTH 37 0
BBX 32 32 3 0
BITMAP
FE001FFE
FE003FFC
FE00FFF0
FE03FFE0
FE07FF80
FE1FFE00
FE3FFC00
FEFFF000
FFFFE000
FFFF8000
FFFE0000
FFFF0000
FFFF0000
FFFF8000
FFBFC000
FE1FE000
FE0FF000
FE0FF000
FE07F800
FE03FC00
FE01FE00
FE00FF00
FE00FF80
FE007F80
FE003FC0
FE001FE0
FE001FF0
FE000FF8
FE0007F8
FE0003FC
FE0001FE
FE0001FF
ENDCHAR
STARTCHAR L
ENCODING 76
SWIDTH 789 0
DWIDTH 36 0
BBX 32 32 3 0
BITMAP
FC000000
FC000000
FC000000
FC000000
FC000000
FC000000
FC000000
FC000000
FC000000
FC000000
FC000000
FC000000
FC000000
FC000000
FC000000
FC000000
FC000000
FC000000
FC000000
FC000000
FC000000
FC000000
FC000000
FC000000
FC000000
FC000000
FFFFFFFF
FFFFFFFF
FFFFFFFF
FFFFFFFF
FFFFFFFF
FFFFFFFF
ENDCHAR
STARTCHAR M
ENCODING 77
SWIDTH 851 0
DWIDTH 38 0
BBX 32 32 3 0
BITMAP
FE00007F
FF0000FF
FF8001FF
FFC003FF
FFE007FF
FFF00FFF
FFF81FFF
FFFC3FFF
FFFE7FFF
FDFFFFBF
FCFFFF3F
FC7FFE3F
FC3FFC3F
FC1FF83F
FC0FF03F
FC07E03F
FC03C03F
FC01803F
FC00003F
FC00003F
FC00003F
FC00003F
FC00003F
FC00003F
FC00003F
FC00003F
FC00003F
FC00003F
FC00003F
FC00003F
FC00003F
FC00003F
ENDCHAR
STARTCHAR N
ENCODING 78
SWIDTH 854 0
DWIDTH 38 0
BBX 32 32 3 0
BITMAP
FE00003F
FF80003F
FFE0003F
FFF8003F
FFFC003F
FFFF003F
FFFFC03F
FFFFF03F
FE7FF83F
FE3FFE3F
FE0FFFBF
FE03FFFF
FE00FFFF
FE007FFF
FE001FFF
FE0007FF
FE0003FF
FE0000FF
FE00003F
FE00003F
FE00003F
FE00003F
FE00003F
FE00003F
FE00003F
FE00003F
FE00003F
FE00003F
FE00003F
FE00003F
FE00003F
FE00003F
ENDCHAR
STARTCHAR O
ENCODING 79
SWIDTH 829 0
DWIDTH 37 0
BBX 32 32 3 0
BITMAP
00FFFF00
07FFFFC0
0FFFFFF0
1FFFFFF8
3FFFFFF8
7FFFFFFC
7FC007FE
FF0000FE
FE0000FE
FC00007F
FC00007F
FC00007F
FC00007F
FC00007F
FC00007F
FC00007F
FC00007F
FC00007F
FC00007F
FC00007F
FC00007F
FC00007F
FC00007F
FE0000FE
FF0000FE
7FC007FE
7FFFFFFC
3FFFFFF8
1FFFFFF8
0FFFFFF0
07FFFFC0
00FFFF00
ENDCHAR
STARTCHAR P
ENCODING 80
SWIDTH 800 0
DWIDTH 36 0
BBX 32 32 3 0
BITMAP
FFFFFF00
FFFFFFE0
FFFFFFF0
FFFFFFF8
FFFFFFFC
FFFFFFFE
FC0007FE
FC0000FF
FC00007F
FC00007F
FC00003F
FC00003F
FC00003F
FC00007F
FC0000FF
FC0001FE
FFFFFFFE
FFFFFFFC
FFFFFFF8
FFFFFFF0
FFFFFFE0
FFFFFF80
FC000000
FC000000
FC000000
FC000000
FC000000
FC000000
FC000000
FC000000
FC000000
FC000000
ENDCHAR
STARTCHAR Q
ENCODING 81
SWIDTH 832 0
DWIDTH 37 0
BBX 32 32 3 0
BITMAP
01FFFF00
07FFFFC0
0FFFFFF0
1FFFFFF8
3FFFFFFC
7FFFFFFC
7FC007FE
FF0000FE
FE0000FE
FC00007F
FC00007F
FC00007F
FC00007F
FC00007F
FC00007F
FC00007F
FC00007F
FC00007F
FC00007F
FC00007F
FC00007F
FC003FFF
FC001FFF
FE001FFE
FF000FFE
7FC00FFE
7FFFFFFC
3FFFFFF8
1FFFFFFC
0FFFFFFC
07FFFFFE
01FFFFFE
ENDCHAR
STARTCHAR R
ENCODING 82
SWIDTH 843 0
DWIDTH 38 0
BBX 32 32 3 0
BITMAP
FFFFFF80
FFFFFFE0
FFFFFFF0
FFFFFFF8
FFFFFFFC
FFFFFFFE
FE0003FE
FE0000FF
FE00007F
FE00003F
FE00003F
FE00003F
FE00003F
FE00007F
FE0000FF
FE0001FE
FFFFFFFE
FFFFFFFC
FFFFFFF8
FFFFFFF0
FFFFFFE0
FFFFFFF0
FE0007F0
FE0007F8
FE0003F8
FE0003F8
FE0001FC
FE0001FC
FE0000FE
FE0000FE
FE00007F
FE00007F
ENDCHAR
STARTCHAR S
ENCODING 83
SWIDTH 830 0
DWIDTH 37 0
BBX 32 32 3 0
BITMAP
03FFFF80
0FFFFFE0
1FFFFFF8
3FFFFFFC
7FFFFFFC
FFFFFFFE
FF0001FE
FE00007F
FC00007F
FC00007F
FC000000
FE000000
FF000000
FFFFFFC0
7FFFFFF0
3FFFFFF8
3FFFFFFC
0FFFFFFE
03FFFFFE
000001FE
0000007F
0000007F
FC00007F
FC00007F
FE0000FF
FF8001FE
FFFFFFFE
7FFFFFFC
3FFFFFFC
1FFFFFF8
0FFFFFE0
03FFFF80
ENDCHAR
STARTCHAR T
ENCODING 84
SWIDTH 768 0
DWIDTH 35 0
BBX 32 32 1 0
BITMAP
FFFFFFFF
FFFFFFFF
FFFFFFFF
FFFFFFFF
FFFFFFFF
FFFFFFFF
0007E000
0007E000
0007E000
0007E000
0007E000
0007E000
0007E000
0007E000
0007E000
0007E000
0007E000
0007E000
0007E000
0007E000
0007E000
0007E000
0007E000
0007E000
0007E000
0007E000
0007E000
0007E000
0007E000
0007E000
0007E000
0007E000
ENDCHAR
STARTCHAR U
ENCODING 85
SWIDTH 841 0
DWIDTH 38 0
BBX 32 32 3 0
BITMAP
FC00003F
FC00003F
FC00003F
FC00003F
FC00003F
FC00003F
FC00003F
FC00003F
FC00003F
FC00003F
FC00003F
FC00003F
FC00003F
FC00003F
FC00003F
FC00003F
FC00003F
FC00003F
FC00003F
FC00003F
FC00003F
FC00003F
FE00007F
FE00007F
7F0000FE
7FE007FE
7FFFFFFC
3FFFFFFC
1FFFFFF8
0FFFFFF0
07FFFFC0
00FFFF00
ENDCHAR
STARTCHAR V
ENCODING 86
SWIDTH 767 0
DWIDTH 35 0
BBX 32 32 1 0
BITMAP
FE00007F
7F00007F
7F0000FE
3F8000FE
3F8000FC
3F8001FC
1FC001FC
1FC003F8
0FE003F8
0FE003F0
0FE007F0
07F007F0
07F00FE0
03F80FE0
03F80FC0
03F81FC0
01FC1FC0
01FC3F80
00FE3F80
00FE3F00
00FE7F00
007F7F00
007FFE00
003FFE00
003FFC00
003FFC00
001FFC00
001FF800
000FF800
000FF000
000FF000
0007F000
ENDCHAR
STARTCHAR W
ENCODING 87
SWIDTH 811 0
DWIDTH 37 0
BBX 32 32 2 0
BITMAP
FE00003F
FE00007F
7E00007F
7E00007F
7F00007E
7F00007E
7F00007E
3F0000FE
3F0000FE
3F8000FC
3F8000FC
3F8000FC
1F8001FC
1F8001FC
1FC081F8
1FC181F8
1FC1C1F8
1FC3E3F8
0FC7E3F8
0FE7F3F0
0FEFF3F0
0FEFFBF0
0FFFFFF0
07FFFFE0
07FFFFE0
07FFFFE0
07FFFFE0
07FF7FE0
03FE7FC0
03FC3FC0
03FC3FC0
03F81FC0
ENDCHAR
STARTCHAR X
ENCODING 88
SWIDTH 829 0
DWIDTH 37 0
BBX 31 32 3 0
BITMAP
FF0001FE
7F8003FC
7FC003FC
3FC007F8
1FE00FF0
0FF01FE0
0FF81FE0
07F83FC0
03FC7F80
01FEFF00
00FFFF00
00FFFE00
007FFC00
003FF800
001FF800
001FF000
001FF000
003FF800
003FFC00
007FFC00
00FFFE00
01FEFF00
01FE7F80
03FC7F80
07F83FC0
0FF01FE0
0FF00FF0
1FE00FF0
3FC007F8
7F8003FC
7F8001FE
FF0001FE
ENDCHAR
STARTCHAR Y
ENCODING 89
SWIDTH 756 0
DWIDTH 34 0
BBX 32 32 1 0
BITMAP
FF8001FF
7F8001FE
3FC003FC
1FE007F8
1FF00FF8
0FF00FF0
07F81FE0
03FC3FC0
03FE3F80
01FE7F80
00FFFF00
007FFE00
007FFC00
003FFC00
001FF800
000FF000
000FE000
0007E000
0007E000
0007E000
0007E000
0007E000
0007E000
0007E000
0007E000
0007E000
0007E000
0007E000
0007E000
0007E000
0007E000
0007E000
ENDCHAR
STARTCHAR Z
ENCODING 90
SWIDTH 854 0
DWIDTH 38 0
BBX 32 32 3 0
BITMAP
FFFFFFFF
FFFFFFFF
FFFFFFFF
FFFFFFFF
FFFFFFFF
FFFFFFFF
000003FF
000007FE
00000FFC
00001FF8
00003FE0
0000FFC0
0001FF80
0003FF00
0007FE00
000FFC00
001FF000
003FE000
00FFC000
01FF8000
03FF0000
07FE0000
0FFC0000
1FF00000
7FE00000
FFC00000
FFFFFFFF
FFFFFFFF
FFFFFFFF
FFFFFFFF
FFFFFFFF
FFFFFFFF
ENDCHAR
STARTCHAR bracketleft
ENCODING 91
SWIDTH 320 0
DWIDTH 14 0
BBX 8 37 3 -3
BITMAP
FF
FF
FF
F8
F8
F8
F8
F8
F8
F8
F8
F8
F8
F8
F8
F8
F8
F8
F8
F8
F8
F8
F8
F8
F8
F8
F8
F8
F8
F8
F8
F8
F8
F8
F8
FF
FF
ENDCHAR
STARTCHAR backslash
ENCODING 92
SWIDTH 710 0
DWIDTH 32 0
BBX 26 34 3 -1
BITMAP
FE000000
7F000000
7F000000
3F800000
1F800000
1FC00000
0FE00000
0FE00000
07F00000
07F00000
03F80000
01F80000
01FC0000
00FE0000
00FE0000
007F0000
007F0000
003F8000
003F8000
001FC000
000FC000
000FE000
0007F000
0007F000
0003F800
0003F800
0001FC00
0000FC00
0000FE00
00007F00
00007F00
00003F80
00003F80
00001FC0
ENDCHAR
STARTCHAR bracketright
ENCODING 93
SWIDTH 320 0
DWIDTH 14 0
BBX 8 37 3 -3
BITMAP
FF
FF
FF
1F
1F
1F
1F
1F
1F
1F
1F
1F
1F
1F
1F
1F
1F
1F
1F
1F
1F
1F
1F
1F
1F
1F
1F
1F
1F
1F
1F
1F
1F
1F
1F
FF
FF
ENDCHAR
STARTCHAR asciicircum
ENCODING 94
SWIDTH 833 0
DWIDTH 37 0
BBX 10 6 13 34
BITMAP
0C00
1E00
3F00
7380
E0C0
C040
ENDCHAR
STARTCHAR underscore
ENCODING 95
SWIDTH 500 0
DWIDTH 23 0
BBX 22 3 0 -6
BITMAP
FFFFFC
FFFFFC
FFFFFC
ENDCHAR
STARTCHAR grave
ENCODING 96
SWIDTH 208 0
DWIDTH 9 0
BBX 6 5 2 34
BITMAP
60
F0
F8
3C
18
ENDCHAR
STARTCHAR a
ENCODING 97
SWIDTH 776 0
DWIDTH 35 0
BBX 31 32 2 0
BITMAP
000FE000
001FF000
001FF000
001FF000
003FF800
003FF800
007FFC00
007FFC00
007FFC00
00FEFE00
00FEFE00
01FC7E00
01FC7F00
01FC7F00
03F83F80
03F83F80
07F01F80
07F01FC0
07F01FC0
0FE00FE0
0FE00FE0
0FFFFFE0
1FFFFFF0
1FFFFFF0
3FFFFFF8
3FFFFFF8
3FFFFFF8
7F0001FC
7F0001FC
FE0000FE
FE0000FE
FE0000FE
ENDCHAR
STARTCHAR b
ENCODING 98
SWIDTH 841 0
DWIDTH 38 0
BBX 32 32 3 0
BITMAP
FFFFFFC0
FFFFFFF0
FFFFFFF8
FFFFFFFC
FFFFFFFE
FFFFFFFE
FC0000FF
FC00007F
FC00003F
FC00003F
FC00003F
FC00007F
FC0000FF
FFFFFFFE
FFFFFFFE
FFFFFFFC
FFFFFFFC
FFFFFFFE
FFFFFFFE
FC0000FF
FC00007F
FC00003F
FC00003F
FC00003F
FC00007F
FC0001FF
FFFFFFFE
FFFFFFFE
FFFFFFFC
FFFFFFF8
FFFFFFF0
FFFFFFC0
ENDCHAR
STARTCHAR c
ENCODING 99
SWIDTH 830 0
DWIDTH 37 0
BBX 32 32 3 0
BITMAP
01FFFF80
07FFFFE0
0FFFFFF0
1FFFFFF8
3FFFFFFC
7FFFFFFE
7F8001FE
FF0000FF
FE00007F
FC00007F
FC00003F
FC000000
FC000000
FC000000
FC000000
FC000000
FC000000
FC000000
FC000000
FC000000
FC000000
FC00003F
FE00007F
FE00007F
FF0000FE
7FFFFFFE
7FFFFFFC
3FFFFFFC
1FFFFFF8
0FFFFFF0
07FFFFC0
00FFFF00
ENDCHAR
STARTCHAR d
ENCODING 100
SWIDTH 838 0
DWIDTH 38 0
BBX 32 32 3 0
BITMAP
FFFFFF00
FFFFFFC0
FFFFFFF0
FFFFFFF8
FFFFFFFC
FFFFFFFE
FE0007FE
FE0000FE
FE00007F
FE00007F
FE00003F
FE00003F
FE00003F
FE00003F
FE00003F
FE00003F
FE00003F
FE00003F
FE00003F
FE00003F
FE00003F
FE00003F
FE00007F
FE00007F
FE0000FE
FE0007FE
FFFFFFFC
FFFFFFFC
FFFFFFF8
FFFFFFF0
FFFFFFC0
FFFFFF00
ENDCHAR
STARTCHAR e
ENCODING 101
SWIDTH 851 0
DWIDTH 38 0
BBX 32 32 3 0
BITMAP
FFFFFFFF
FFFFFFFF
FFFFFFFF
FFFFFFFF
FFFFFFFF
FFFFFFFF
FC000000
FC000000
FC000000
FC000000
FC000000
FC000000
FC000000
FFFFF000
FFFFF000
FFFFF000
FFFFF000
FFFFF000
FFFFF000
FC000000
FC000000
FC000000
FC000000
FC000000
FC000000
FC000000
FFFFFFFF
FFFFFFFF
FFFFFFFF
FFFFFFFF
FFFFFFFF
FFFFFFFF
ENDCHAR
STARTCHAR f
ENCODING 102
SWIDTH 787 0
DWIDTH 35 0
BBX 32 32 3 0
BITMAP
FFFFFFFF
FFFFFFFF
FFFFFFFF
FFFFFFFF
FFFFFFFF
FFFFFFFF
FC000000
FC000000
FC000000
FC000000
FC000000
FC000000
FC000000
FFFFF000
FFFFF000
FFFFF000
FFFFF000
FFFFF000
FFFFF000
FC000000
FC000000
FC000000
FC000000
FC000000
FC000000
FC000000
FC000000
FC000000
FC000000
FC000000
FC000000
FC000000
ENDCHAR
STARTCHAR g
ENCODING 103
SWIDTH 828 0
DWIDTH 37 0
BBX 32 32 3 0
BITMAP
01FFFF00
07FFFFC0
0FFFFFF0
1FFFFFF8
3FFFFFFC
7FFFFFFC
7FC003FE
FF0000FE
FE00007E
FC00007F
FC00007F
FC000000
FC000000
FC000000
FC00FFFF
FC00FFFF
FC00FFFF
FC00FFFF
FC00FFFF
FC00FFFF
FC00FFFF
FC00007F
FC00007F
FE00007E
FF0000FE
7FC007FE
7FFFFFFC
3FFFFFF8
1FFFFFF8
0FFFFFF0
07FFFFC0
01FFFF00
ENDCHAR
STARTCHAR h
ENCODING 104
SWIDTH 852 0
DWIDTH 38 0
BBX 32 32 3 0
BITMAP
FE00003F
FE00003F
FE00003F
FE00003F
FE00003F
FE00003F
FE00003F
FE00003F
FE00003F
FE00003F
FE00003F
FE00003F
FE00003F
FFFFFFFF
FFFFFFFF
FFFFFFFF
FFFFFFFF
FFFFFFFF
FFFFFFFF
FE00003F
FE00003F
FE00003F
FE00003F
FE00003F
FE00003F
FE00003F
FE00003F
FE00003F
FE00003F
FE00003F
FE00003F
FE00003F
ENDCHAR
STARTCHAR i
ENCODING 105
SWIDTH 279 0
DWIDTH 13 0
BBX 6 32 3 0
BITMAP
FC
FC
FC
FC
FC
FC
FC
FC
FC
FC
FC
FC
FC
FC
FC
FC
FC
FC
FC
FC
FC
FC
FC
FC
FC
FC
FC
FC
FC
FC
FC
FC
ENDCHAR
STARTCHAR j
ENCODING 106
SWIDTH 780 0
DWIDTH 35 0
BBX 32 32 0 0
BITMAP
0000003F
0000003F
0000003F
0000003F
0000003F
0000003F
0000003F
0000003F
0000003F
0000003F
0000003F
0000003F
0000003F
0000003F
0000003F
0000003F
0000003F
0000003F
0000003F
0000003F
0000003F
FE00003F
FE00003F
7E00007F
7F0000FF
7FE003FE
3FFFFFFE
3FFFFFFC
1FFFFFF8
0FFFFFF0
03FFFFE0
00FFFF00
ENDCHAR
STARTCHAR k
ENCODING 107
SWIDTH 830 0
DWIDTH 37 0
BBX 32 32 3 0
BITMAP
FE001FFE
FE003FFC
FE00FFF0
FE03FFE0
FE07FF80
FE1FFE00
FE3FFC00
FEFFF000
FFFFE000
FFFF8000
FFFE0000
FFFF0000
FFFF0000
FFFF8000
FFBFC000
FE1FE000
FE0FF000
FE0FF000
FE07F800
FE03FC00
FE01FE00
FE00FF00
FE00FF80
FE007F80
FE003FC0
FE001FE0
FE001FF0
FE000FF8
FE0007F8
FE0003FC
FE0001FE
FE0001FF
ENDCHAR
STARTCHAR l
ENCODING 108
SWIDTH 789 0
DWIDTH 36 0
BBX 32 32 3 0
BITMAP
FC000000
FC000000
FC000000
FC000000
FC000000
FC000000
FC000000
FC000000
FC000000
FC000000
FC000000
FC000000
FC000000
FC000000
FC000000
FC000000
FC000000
FC000000
FC000000
FC000000
FC000000
FC000000
FC000000
FC000000
FC000000
FC000000
FFFFFFFF
FFFFFFFF
FFFFFFFF
FFFFFFFF
FFFFFFFF
FFFFFFFF
ENDCHAR
STARTCHAR m
ENCODING 109
SWIDTH 851 0
DWIDTH 38 0
BBX 32 32 3 0
BITMAP
FE00007F
FF0000FF
FF8001FF
FFC003FF
FFE007FF
FFF00FFF
FFF81FFF
FFFC3FFF
FFFE7FFF
FDFFFFBF
FCFFFF3F
FC7FFE3F
FC3FFC3F
FC1FF83F
FC0FF03F
FC07E03F
FC03C03F
FC01803F
FC00003F
FC00003F
FC00003F
FC00003F
FC00003F
FC00003F
FC00003F
FC00003F
FC00003F
FC00003F
FC00003F
FC00003F
FC00003F
FC00003F
ENDCHAR
STARTCHAR n
ENCODING 110
SWIDTH 854 0
DWIDTH 38 0
BBX 32 32 3 0
BITMAP
FE00003F
FF80003F
FFE0003F
FFF8003F
FFFC003F
FFFF003F
FFFFC03F
FFFFF03F
FE7FF83F
FE3FFE3F
FE0FFFBF
FE03FFFF
FE00FFFF
FE007FFF
FE001FFF
FE0007FF
FE0003FF
FE0000FF
FE00003F
FE00003F
FE00003F
FE00003F
FE00003F
FE00003F
FE00003F
FE00003F
FE00003F
FE00003F
FE00003F
FE00003F
FE00003F
FE00003F
ENDCHAR
STARTCHAR o
ENCODING 111
SWIDTH 830 0
DWIDTH 37 0
BBX 32 32 3 0
BITMAP
00FFFF00
07FFFFC0
0FFFFFF0
1FFFFFF8
3FFFFFF8
7FFFFFFC
7FC007FE
FF0000FE
FE0000FE
FC00007F
FC00007F
FC00007F
FC00007F
FC00007F
FC00007F
FC00007F
FC00007F
FC00007F
FC00007F
FC00007F
FC00007F
FC00007F
FC00007F
FE0000FE
FF0000FE
7FC007FE
7FFFFFFC
3FFFFFF8
1FFFFFF8
0FFFFFF0
07FFFFC0
00FFFF00
ENDCHAR
STARTCHAR p
ENCODING 112
SWIDTH 800 0
DWIDTH 36 0
BBX 32 32 3 0
BITMAP
FFFFFF00
FFFFFFE0
FFFFFFF0
FFFFFFF8
FFFFFFFC
FFFFFFFE
FC0007FE
FC0000FF
FC00007F
FC00007F
FC00003F
FC00003F
FC00003F
FC00007F
FC0000FF
FC0001FE
FFFFFFFE
FFFFFFFC
FFFFFFF8
FFFFFFF0
FFFFFFE0
FFFFFF80
FC000000
FC000000
FC000000
FC000000
FC000000
FC000000
FC000000
FC000000
FC000000
FC000000
ENDCHAR
STARTCHAR q
ENCODING 113
SWIDTH 833 0
DWIDTH 37 0
BBX 32 32 3 0
BITMAP
01FFFF00
07FFFFC0
0FFFFFF0
1FFFFFF8
3FFFFFFC
7FFFFFFC
7FC007FE
FF0000FE
FE0000FE
FC00007F
FC00007F
FC00007F
FC00007F
FC00007F
FC00007F
FC00007F
FC00007F
FC00007F
FC00007F
FC00007F
FC00007F
FC003FFF
FC001FFF
FE001FFE
FF000FFE
7FC007FE
7FFFFFFC
3FFFFFF8
1FFFFFFC
0FFFFFFC
07FFFFFE
00FFFFFE
ENDCHAR
STARTCHAR r
ENCODING 114
SWIDTH 843 0
DWIDTH 38 0
BBX 32 32 3 0
BITMAP
FFFFFF80
FFFFFFE0
FFFFFFF0
FFFFFFF8
FFFFFFFC
FFFFFFFE
FE0003FE
FE0000FF
FE00007F
FE00003F
FE00003F
FE00003F
FE00003F
FE00007F
FE0000FF
FE0001FE
FFFFFFFE
FFFFFFFC
FFFFFFF8
FFFFFFF0
FFFFFFE0
FFFFFFF0
FE0007F0
FE0007F8
FE0003F8
FE0003F8
FE0001FC
FE0001FC
FE0000FE
FE0000FE
FE00007F
FE00007F
ENDCHAR
STARTCHAR s
ENCODING 115
SWIDTH 830 0
DWIDTH 37 0
BBX 32 32 3 0
BITMAP
03FFFF80
0FFFFFE0
1FFFFFF8
3FFFFFFC
7FFFFFFC
FFFFFFFE
FF0001FE
FE00007F
FC00007F
FC00007F
FC000000
FE000000
FF000000
FFFFFFC0
7FFFFFF0
3FFFFFF8
3FFFFFFC
0FFFFFFE
03FFFFFE
000001FE
0000007F
0000007F
FC00007F
FC00007F
FE0000FF
FF8001FE
FFFFFFFE
7FFFFFFC
3FFFFFFC
1FFFFFF8
0FFFFFE0
03FFFF80
ENDCHAR
STARTCHAR t
ENCODING 116
SWIDTH 768 0
DWIDTH 35 0
BBX 32 32 1 0
BITMAP
FFFFFFFF
FFFFFFFF
FFFFFFFF
FFFFFFFF
FFFFFFFF
FFFFFFFF
0007E000
0007E000
0007E000
0007E000
0007E000
0007E000
0007E000
0007E000
0007E000
0007E000
0007E000
0007E000
0007E000
0007E000
0007E000
0007E000
0007E000
0007E000
0007E000
0007E000
0007E000
0007E000
0007E000
0007E000
0007E000
0007E000
ENDCHAR
STARTCHAR u
ENCODING 117
SWIDTH 841 0
DWIDTH 38 0
BBX 32 32 3 0
BITMAP
FC00003F
FC00003F
FC00003F
FC00003F
FC00003F
FC00003F
FC00003F
FC00003F
FC00003F
FC00003F
FC00003F
FC00003F
FC00003F
FC00003F
FC00003F
FC00003F
FC00003F
FC00003F
FC00003F
FC00003F
FC00003F
FC00003F
FE00007F
FE00007F
7F0000FE
7FE007FE
7FFFFFFC
3FFFFFFC
1FFFFFF8
0FFFFFF0
07FFFFC0
00FFFF00
ENDCHAR
STARTCHAR v
ENCODING 118
SWIDTH 767 0
DWIDTH 35 0
BBX 31 32 2 0
BITMAP
FC0000FE
FE0000FE
FE0001FC
7F0001FC
7F0001F8
3F0003F8
3F8003F8
3F8007F0
1FC007F0
1FC007E0
1FC00FE0
0FE00FE0
0FE01FC0
07F01FC0
07F01F80
07F03F80
03F83F80
03F87F00
01FC7F00
01FC7E00
01FCFE00
00FEFE00
00FFFC00
007FFC00
007FF800
007FF800
003FF800
003FF000
001FF000
001FE000
001FE000
000FE000
ENDCHAR
STARTCHAR w
ENCODING 119
SWIDTH 811 0
DWIDTH 37 0
BBX 32 32 2 0
BITMAP
FE00003F
FE00007F
7E00007F
7E00007F
7F00007E
7F00007E
7F00007E
3F0000FE
3F0000FE
3F8000FC
3F8000FC
3F8000FC
1F8001FC
1F8001FC
1FC081F8
1FC181F8
1FC1C1F8
1FC3E3F8
0FC7E3F8
0FE7F3F0
0FEFF3F0
0FEFFBF0
0FFFFFF0
07FFFFE0
07FFFFE0
07FFFFE0
07FFFFE0
07FF7FE0
03FE7FC0
03FC3FC0
03FC3FC0
03F81FC0
ENDCHAR
STARTCHAR x
ENCODING 120
SWIDTH 829 0
DWIDTH 37 0
BBX 31 32 3 0
BITMAP
FF0001FE
7F8003FC
7FC003FC
3FC007F8
1FE00FF0
0FF01FE0
0FF81FE0
07F83FC0
03FC7F80
01FEFF00
00FFFF00
00FFFE00
007FFC00
003FF800
001FF800
001FF000
001FF000
003FF800
003FFC00
007FFC00
00FFFE00
01FEFF00
01FE7F80
03FC7F80
07F83FC0
0FF01FE0
0FF00FF0
1FE00FF0
3FC007F8
7F8003FC
7F8001FE
FF0001FE
ENDCHAR
STARTCHAR y
ENCODING 121
SWIDTH 756 0
DWIDTH 34 0
BBX 32 32 1 0
BITMAP
FF8001FF
7F8001FE
3FC003FC
1FE007F8
1FF00FF8
0FF00FF0
07F81FE0
03FC3FC0
03FE3F80
01FE7F80
00FFFF00
007FFE00
007FFC00
003FFC00
001FF800
000FF000
000FE000
0007E000
0007E000
0007E000
0007E000
0007E000
0007E000
0007E000
0007E000
0007E000
0007E000
0007E000
0007E000
0007E000
0007E000
0007E000
ENDCHAR
STARTCHAR z
ENCODING 122
SWIDTH 853 0
DWIDTH 38 0
BBX 32 32 3 0
BITMAP
FFFFFFFF
FFFFFFFF
FFFFFFFF
FFFFFFFF
FFFFFFFF
FFFFFFFF
000003FF
000007FE
00000FFC
00001FF8
00003FE0
0000FFC0
0001FF80
0003FF00
0007FE00
000FFC00
001FF000
003FE000
00FFC000
01FF8000
03FF0000
07FE0000
0FF80000
1FF00000
7FE00000
FFC00000
FFFFFFFF
FFFFFFFF
FFFFFFFF
FFFFFFFF
FFFFFFFF
FFFFFFFF
ENDCHAR
STARTCHAR braceleft
ENCODING 123
SWIDTH 370 0
DWIDTH 17 0
BBX 10 47 3 -9
BITMAP
01C0
03C0
07C0
0FC0
0F80
1F00
1E00
1E00
1E00
1E00
1E00
1E00
1E00
1E00
1E00
1E00
1E00
1E00
1E00
3E00
3C00
FC00
F800
F000
F800
7C00
3E00
1E00
1E00
1E00
1E00
1E00
1E00
1E00
1E00
1E00
1E00
1E00
1E00
1E00
1F00
0F00
0F80
0FC0
07C0
03C0
00C0
ENDCHAR
STARTCHAR bar
ENCODING 124
SWIDTH 852 0
DWIDTH 38 0
BBX 6 34 16 0
BITMAP
FC
FC
FC
FC
FC
FC
FC
FC
FC
FC
FC
FC
FC
FC
FC
FC
FC
FC
FC
FC
FC
FC
FC
FC
FC
FC
FC
FC
FC
FC
FC
FC
FC
FC
ENDCHAR
STARTCHAR braceright
ENCODING 125
SWIDTH 370 0
DWIDTH 17 0
BBX 10 47 3 -9
BITMAP
F000
F800
FC00
FC00
3E00
1E00
1E00
1E00
1E00
1E00
1E00
1E00
1E00
1E00
1E00
1E00
1E00
1E00
1F00
0F00
0F80
07C0
07C0
03C0
07C0
07C0
0F80
0F00
1F00
1E00
1E00
1E00
1E00
1E00
1E00
1E00
1E00
1E00
1E00
1E00
1E00
1E00
3E00
FC00
F800
F000
E000
ENDCHAR
STARTCHAR asciitilde
ENCODING 126
SWIDTH 833 0
DWIDTH 37 0
BBX 1 1 0 0
BITMAP
00
ENDCHAR
STARTCHAR space.dup1
ENCODING 160
SWIDTH 701 0
DWIDTH 32 0
BBX 1 1 0 0
BITMAP
00
ENDCHAR
STARTCHAR dieresis
ENCODING 168
SWIDTH 830 0
DWIDTH 37 0
BBX 17 2 9 34
BITMAP
FE1F80
FE1F80
ENDCHAR
STARTCHAR copyright
ENCODING 169
SWIDTH 518 0
DWIDTH 23 0
BBX 17 17 3 15
BITMAP
03F000
0FFC00
180E00
300700
61E300
47F180
C41980
CC0180
CC0180
CC0180
C41980
47F180
61C300
300600
180E00
0FF800
03E000
ENDCHAR
STARTCHAR guillemotleft
ENCODING 171
SWIDTH 613 0
DWIDTH 28 0
BBX 22 22 2 3
BITMAP
002004
006004
00E00C
01E01C
03E03C
07C07C
0F80F8
1F01F0
3E03E0
7C07C0
F80F80
F80F80
7C07C0
3E03E0
1F01F0
0F80F8
07C07C
03E03C
01E01C
00E00C
006004
002004
ENDCHAR
STARTCHAR registered
ENCODING 174
SWIDTH 516 0
DWIDTH 23 0
BBX 17 17 3 15
BITMAP
03E000
0FF800
180E00
300600
67E300
47F180
C41980
C41980
C7F180
C7F180
C43180
643180
641B00
300600
180C00
0FF800
03E000
ENDCHAR
STARTCHAR degree
ENCODING 176
SWIDTH 403 0
DWIDTH 18 0
BBX 14 14 2 19
BITMAP
0780
1FE0
3FF0
7CF8
7038
F01C
E01C
E01C
E01C
7038
7878
3FF0
1FE0
0780
ENDCHAR
STARTCHAR acute
ENCODING 180
SWIDTH 790 0
DWIDTH 36 0
BBX 6 5 17 34
BITMAP
18
3C
78
F0
E0
ENDCHAR
STARTCHAR guillemotright
ENCODING 187
SWIDTH 613 0
DWIDTH 28 0
BBX 23 22 3 3
BITMAP
800800
C00C00
E00E00
F00F00
F80F80
FC0FC0
7E07E0
3F03F0
1F81F8
0FC0FC
07E07E
07E07E
0FC0FC
1F81F8
3F03F0
7E07E0
FC0FC0
F80F80
F00F00
E00E00
C00C00
800800
ENDCHAR
STARTCHAR Agrave
ENCODING 192
SWIDTH 752 0
DWIDTH 34 0
BBX 32 39 1 0
BITMAP
000C0000
001E0000
000F0000
00078000
00038000
00000000
00000000
000FF000
000FF000
000FF000
001FF800
001FF800
003FFC00
003FFC00
003FFC00
007FFE00
007FFE00
00FE7F00
00FE7F00
00FC7F00
01FC3F80
01FC3F80
01F81F80
03F81FC0
03F01FC0
07F00FE0
07F00FE0
07E007E0
0FFFFFF0
0FFFFFF0
1FFFFFF8
1FFFFFF8
1FFFFFF8
3FFFFFFC
3F8001FC
7F0000FE
7F0000FE
7E0000FE
FE00007F
ENDCHAR
STARTCHAR Aacute
ENCODING 193
SWIDTH 750 0
DWIDTH 34 0
BBX 32 39 1 0
BITMAP
00002000
00007000
0000F000
0001C000
00018000
00000000
00000000
000FE000
000FF000
001FF000
001FF800
001FF800
003FF800
003FFC00
003FFC00
007FFC00
007EFE00
00FEFE00
00FE7F00
00FC7F00
01FC3F00
01F83F80
03F83F80
03F81FC0
03F01FC0
07F00FC0
07F00FE0
0FE00FE0
0FFFFFF0
0FFFFFF0
1FFFFFF0
1FFFFFF8
3FFFFFF8
3FFFFFFC
3F0001FC
7F0001FC
7F0000FE
FE0000FE
FE00007F
ENDCHAR
STARTCHAR Acircumflex
ENCODING 194
SWIDTH 764 0
DWIDTH 34 0
BBX 32 40 1 0
BITMAP
00018000
0003C000
00076000
000E3000
001C1800
00180800
00000000
00000000
0007F000
000FF000
000FF800
001FF800
001FF800
001FFC00
003FFC00
003FFE00
007FFE00
007F7E00
007F7F00
00FE7F00
00FE3F80
01FC3F80
01FC3F80
01FC1FC0
03F81FC0
03F80FE0
07F00FE0
07F00FE0
07F007F0
0FFFFFF0
0FFFFFF0
1FFFFFF8
1FFFFFF8
1FFFFFFC
3FFFFFFC
3F8000FC
3F0000FE
7F0000FE
7F00007F
FE00007F
ENDCHAR
STARTCHAR Atilde
ENCODING 195
SWIDTH 777 0
DWIDTH 35 0
BBX 31 40 2 0
BITMAP
00180000
007E0800
00FF9E00
01FFFE00
0063FC00
0000F800
00000000
00000000
000FE000
001FF000
001FF000
001FF000
003FF800
003FF800
007FFC00
007FFC00
007FFC00
00FEFE00
00FEFE00
01FC7E00
01FC7F00
01FC7F00
03F83F80
03F83F80
07F01F80
07F01FC0
07F01FC0
0FE00FE0
0FE00FE0
0FFFFFE0
1FFFFFF0
1FFFFFF0
3FFFFFF8
3FFFFFF8
3FFFFFF8
7F0001FC
7F0001FC
FE0000FE
FE0000FE
FE0000FE
ENDCHAR
STARTCHAR Adieresis
ENCODING 196
SWIDTH 769 0
DWIDTH 35 0
BBX 32 36 1 0
BITMAP
01F81FC0
01F81FC0
00000000
00000000
0007F000
000FF000
000FF800
001FF800
001FFC00
001FFC00
003FFC00
003FFE00
007FFE00
007F7F00
007F7F00
00FE7F00
00FE3F80
00FC3F80
01FC1FC0
01FC1FC0
03F81FC0
03F80FE0
03F00FE0
07F007F0
07F007F0
0FFFFFF0
0FFFFFF8
0FFFFFF8
1FFFFFF8
1FFFFFFC
3FFFFFFC
3F8000FE
3F8000FE
7F0000FE
7F00007F
FE00007F
ENDCHAR
STARTCHAR Aring
ENCODING 197
SWIDTH 777 0
DWIDTH 35 0
BBX 31 43 2 0
BITMAP
00010000
000FC000
001C6000
00183000
00183000
00183000
00183000
001C6000
000FC000
00010000
00000000
000FE000
001FF000
001FF000
001FF000
003FF800
003FF800
007FFC00
007FFC00
007FFC00
00FEFE00
00FEFE00
01FC7E00
01FC7F00
01FC7F00
03F83F80
03F83F80
07F01F80
07F01FC0
07F01FC0
0FE00FE0
0FE00FE0
0FFFFFE0
1FFFFFF0
1FFFFFF0
3FFFFFF8
3FFFFFF8
3FFFFFF8
7F0001FC
7F0001FC
FE0000FE
FE0000FE
FE0000FE
ENDCHAR
STARTCHAR AE
ENCODING 198
SWIDTH 1262 0
DWIDTH 57 0
BBX 52 32 2 0
BITMAP
000FFFFFFFFFF0
000FFFFFFFFFF0
000FFFFFFFFFF0
001FFFFFFFFFF0
001FFFFFFFFFF0
003FFFFFFFFFF0
003F8FC0000000
003F0FC0000000
007F0FC0000000
007F0FC0000000
00FE0FC0000000
00FE0FC0000000
00FE0FC0000000
01FC0FFFFE0000
01FC0FFFFE0000
03F80FFFFE0000
03F80FFFFE0000
03F80FFFFE0000
07F00FFFFE0000
07F00FC0000000
0FE00FC0000000
0FFFFFC0000000
0FFFFFC0000000
1FFFFFC0000000
1FFFFFC0000000
1FFFFFC0000000
3FFFFFFFFFFFF0
3F800FFFFFFFF0
7F000FFFFFFFF0
7F000FFFFFFFF0
7E000FFFFFFFF0
FE000FFFFFFFF0
ENDCHAR
STARTCHAR Ccedilla
ENCODING 199
SWIDTH 830 0
DWIDTH 37 0
BBX 32 38 3 -6
BITMAP
00FFFF00
07FFFFC0
0FFFFFF0
1FFFFFF8
3FFFFFFC
7FFFFFFC
7FC003FE
FF0000FE
FE0000FF
FC00007F
FC00007F
FC000000
FC000000
FC000000
FC000000
FC000000
FC000000
FC000000
FC000000
FC000000
FC000000
FC00007F
FE00007F
FE00007F
FF0000FE
7FE007FE
7FFFFFFC
3FFFFFFC
1FFFFFF8
0FFFFFF0
07FFFFC0
00FFFF00
00018000
00018000
00018000
00018000
00038000
00038000
ENDCHAR
STARTCHAR Egrave
ENCODING 200
SWIDTH 788 0
DWIDTH 35 0
BBX 32 39 2 0
BITMAP
00060000
000F0000
000F8000
0003C000
00018000
00000000
00000000
FFFFFFFF
FFFFFFFF
FFFFFFFF
FFFFFFFF
FFFFFFFF
FFFFFFFF
FE000000
FE000000
FE000000
FE000000
FE000000
FE000000
FE000000
FFFFF000
FFFFF000
FFFFF000
FFFFF000
FFFFF000
FFFFF000
FE000000
FE000000
FE000000
FE000000
FE000000
FE000000
FE000000
FFFFFFFF
FFFFFFFF
FFFFFFFF
FFFFFFFF
FFFFFFFF
FFFFFFFF
ENDCHAR
STARTCHAR Eacute
ENCODING 201
SWIDTH 791 0
DWIDTH 36 0
BBX 32 39 2 0
BITMAP
00003000
00007800
0000F000
0001E000
0001C000
00000000
00000000
FFFFFFFF
FFFFFFFF
FFFFFFFF
FFFFFFFF
FFFFFFFF
FFFFFFFF
FFFFFFFF
FE000000
FE000000
FE000000
FE000000
FE000000
FE000000
FFFFF000
FFFFF000
FFFFF000
FFFFF000
FFFFF000
FFFFF000
FE000000
FE000000
FE000000
FE000000
FE000000
FE000000
FE000000
FFFFFFFF
FFFFFFFF
FFFFFFFF
FFFFFFFF
FFFFFFFF
FFFFFFFF
ENDCHAR
STARTCHAR Ecircumflex
ENCODING 202
SWIDTH 796 0
DWIDTH 36 0
BBX 32 40 2 0
BITMAP
00018000
0003C000
0007E000
000E7000
001C1800
00180800
00000000
00000000
FFFFFFFF
FFFFFFFF
FFFFFFFF
FFFFFFFF
FFFFFFFF
FFFFFFFF
FE000000
FE000000
FE000000
FE000000
FE000000
FE000000
FE000000
FFFFF000
FFFFF000
FFFFF000
FFFFF000
FFFFF000
FFFFF000
FE000000
FE000000
FE000000
FE000000
FE000000
FE000000
FE000000
FFFFFFFF
FFFFFFFF
FFFFFFFF
FFFFFFFF
FFFFFFFF
FFFFFFFF
ENDCHAR
STARTCHAR Edieresis
ENCODING 203
SWIDTH 851 0
DWIDTH 38 0
BBX 32 36 3 0
BITMAP
03F81F80
03F81F80
00000000
00000000
FFFFFFFF
FFFFFFFF
FFFFFFFF
FFFFFFFF
FFFFFFFF
FFFFFFFF
FC000000
FC000000
FC000000
FC000000
FC000000
FC000000
FC000000
FFFFF000
FFFFF000
FFFFF000
FFFFF000
FFFFF000
FFFFF000
FC000000
FC000000
FC000000
FC000000
FC000000
FC000000
FC000000
FFFFFFFF
FFFFFFFF
FFFFFFFF
FFFFFFFF
FFFFFFFF
FFFFFFFF
ENDCHAR
STARTCHAR Igrave
ENCODING 204
SWIDTH 258 0
DWIDTH 12 0
BBX 8 39 1 0
BITMAP
60
F0
78
3C
0C
00
00
3F
3F
3F
3F
3F
3F
3F
3F
3F
3F
3F
3F
3F
3F
3F
3F
3F
3F
3F
3F
3F
3F
3F
3F
3F
3F
3F
3F
3F
3F
3F
3F
ENDCHAR
STARTCHAR Iacute
ENCODING 205
SWIDTH 260 0
DWIDTH 12 0
BBX 8 39 2 0
BITMAP
06
0F
1E
3C
18
00
00
FE
FE
FE
FE
FE
FE
FE
FE
FE
FE
FE
FE
FE
FE
FE
FE
FE
FE
FE
FE
FE
FE
FE
FE
FE
FE
FE
FE
FE
FE
FE
FE
ENDCHAR
STARTCHAR Icircumflex
ENCODING 206
SWIDTH 299 0
DWIDTH 13 0
BBX 10 40 2 0
BITMAP
0C00
1E00
3700
6380
C1C0
80C0
0000
0000
3F00
3F00
3F00
3F00
3F00
3F00
3F00
3F00
3F00
3F00
3F00
3F00
3F00
3F00
3F00
3F00
3F00
3F00
3F00
3F00
3F00
3F00
3F00
3F00
3F00
3F00
3F00
3F00
3F00
3F00
3F00
3F00
ENDCHAR
STARTCHAR Idieresis
ENCODING 207
SWIDTH 279 0
DWIDTH 13 0
BBX 17 37 1 0
BITMAP
FC1F80
FC1F80
001F80
000000
000000
07E000
07E000
07E000
07E000
07E000
07E000
07E000
07E000
07E000
07E000
07E000
07E000
07E000
07E000
07E000
07E000
07E000
07E000
07E000
07E000
07E000
07E000
07E000
07E000
07E000
07E000
07E000
07E000
07E000
07E000
07E000
07E000
ENDCHAR
STARTCHAR Ntilde
ENCODING 209
SWIDTH 854 0
DWIDTH 38 0
BBX 32 40 3 0
BITMAP
000C0000
003F0400
007FCF00
00FFFE00
0071FE00
00007C00
00000000
00000000
FE00003F
FF80003F
FFE0003F
FFF8003F
FFFC003F
FFFF003F
FFFFC03F
FFFFF03F
FE7FF83F
FE3FFE3F
FE0FFFBF
FE03FFFF
FE00FFFF
FE007FFF
FE001FFF
FE0007FF
FE0003FF
FE0000FF
FE00003F
FE00003F
FE00003F
FE00003F
FE00003F
FE00003F
FE00003F
FE00003F
FE00003F
FE00003F
FE00003F
FE00003F
FE00003F
FE00003F
ENDCHAR
STARTCHAR Ograve
ENCODING 210
SWIDTH 829 0
DWIDTH 37 0
BBX 32 39 3 0
BITMAP
00180000
003C0000
001E0000
000F0000
00030000
00000000
00000000
00FFFF00
07FFFFC0
0FFFFFF0
1FFFFFF8
3FFFFFF8
7FFFFFFC
7FC007FE
FF0000FE
FE0000FE
FC00007F
FC00007F
FC00007F
FC00007F
FC00007F
FC00007F
FC00007F
FC00007F
FC00007F
FC00007F
FC00007F
FC00007F
FC00007F
FC00007F
FE0000FE
FF0000FE
7FC007FE
7FFFFFFC
3FFFFFF8
1FFFFFF8
0FFFFFF0
07FFFFC0
00FFFF00
ENDCHAR
STARTCHAR Oacute
ENCODING 211
SWIDTH 829 0
DWIDTH 37 0
BBX 32 39 3 0
BITMAP
00008000
0001C000
0003C000
00070000
00060000
00000000
00000000
00FFFF00
07FFFFC0
0FFFFFF0
1FFFFFF8
3FFFFFF8
7FFFFFFC
7FC007FE
FF0000FE
FE0000FE
FC00007F
FC00007F
FC00007F
FC00007F
FC00007F
FC00007F
FC00007F
FC00007F
FC00007F
FC00007F
FC00007F
FC00007F
FC00007F
FC00007F
FE0000FE
FF0000FE
7FC007FE
7FFFFFFC
3FFFFFF8
1FFFFFF8
0FFFFFF0
07FFFFC0
00FFFF00
ENDCHAR
STARTCHAR Ocircumflex
ENCODING 212
SWIDTH 829 0
DWIDTH 37 0
BBX 32 40 3 0
BITMAP
00030000
00078000
000FC000
001CE000
00383000
00301000
00000000
00000000
00FFFF00
07FFFFC0
0FFFFFF0
1FFFFFF8
3FFFFFF8
7FFFFFFC
7FC007FE
FF0000FE
FE0000FE
FC00007F
FC00007F
FC00007F
FC00007F
FC00007F
FC00007F
FC00007F
FC00007F
FC00007F
FC00007F
FC00007F
FC00007F
FC00007F
FC00007F
FE0000FE
FF0000FE
7FC007FE
7FFFFFFC
3FFFFFF8
1FFFFFF8
0FFFFFF0
07FFFFC0
00FFFF00
ENDCHAR
STARTCHAR Otilde
ENCODING 213
SWIDTH 829 0
DWIDTH 37 0
BBX 32 40 3 0
BITMAP
00180000
007F0800
00FF9E00
00FFFE00
0063FC00
0000F800
00000000
00000000
00FFFF00
07FFFFC0
0FFFFFF0
1FFFFFF8
3FFFFFF8
7FFFFFFC
7FC007FE
FF0000FE
FE0000FE
FC00007F
FC00007F
FC00007F
FC00007F
FC00007F
FC00007F
FC00007F
FC00007F
FC00007F
FC00007F
FC00007F
FC00007F
FC00007F
FC00007F
FE0000FE
FF0000FE
7FC007FE
7FFFFFFC
3FFFFFF8
1FFFFFF8
0FFFFFF0
07FFFFC0
00FFFF00
ENDCHAR
STARTCHAR Odieresis
ENCODING 214
SWIDTH 829 0
DWIDTH 37 0
BBX 32 36 3 0
BITMAP
03F81F80
03F81F80
00000000
00000000
00FFFF00
07FFFFC0
0FFFFFF0
1FFFFFF8
3FFFFFF8
7FFFFFFC
7FC007FE
FF0000FE
FE0000FE
FC00007F
FC00007F
FC00007F
FC00007F
FC00007F
FC00007F
FC00007F
FC00007F
FC00007F
FC00007F
FC00007F
FC00007F
FC00007F
FC00007F
FE0000FE
FF0000FE
7FC007FE
7FFFFFFC
3FFFFFF8
1FFFFFF8
0FFFFFF0
07FFFFC0
00FFFF00
ENDCHAR
STARTCHAR Ugrave
ENCODING 217
SWIDTH 800 0
DWIDTH 36 0
BBX 32 39 2 0
BITMAP
000C0000
001E0000
000F0000
00078000
00018000
00000000
00000000
FE00003F
FE00003F
FE00003F
FE00003F
FE00003F
FE00003F
FE00003F
FE00003F
FE00003F
FE00003F
FE00003F
FE00003F
FE00003F
FE00003F
FE00003F
FE00003F
FE00003F
FE00003F
FE00003F
FE00003F
FE00003F
FE00003F
FE00007F
7E00007F
7F0000FE
7FE003FE
3FFFFFFC
3FFFFFFC
1FFFFFF8
0FFFFFF0
03FFFFC0
00FFFF00
ENDCHAR
STARTCHAR Uacute
ENCODING 218
SWIDTH 800 0
DWIDTH 36 0
BBX 32 39 2 0
BITMAP
00003000
00007000
0000F000
0001C000
00018000
00000000
00000000
FC00003F
FC00003F
FC00003F
FC00003F
FC00003F
FC00003F
FC00003F
FC00003F
FC00003F
FC00003F
FC00003F
FC00003F
FC00003F
FC00003F
FC00003F
FC00003F
FC00003F
FC00003F
FC00003F
FC00003F
FC00003F
FE00003F
FE00007F
FE00007F
7F0000FE
7FE007FE
3FFFFFFC
3FFFFFFC
1FFFFFF8
0FFFFFF0
03FFFFC0
00FFFF00
ENDCHAR
STARTCHAR Ucircumflex
ENCODING 219
SWIDTH 803 0
DWIDTH 36 0
BBX 32 40 2 0
BITMAP
00018000
0003C000
00076000
000E3000
001C1800
00180800
00000000
00000000
FE00003F
FE00003F
FE00003F
FE00003F
FE00003F
FE00003F
FE00003F
FE00003F
FE00003F
FE00003F
FE00003F
FE00003F
FE00003F
FE00003F
FE00003F
FE00003F
FE00003F
FE00003F
FE00003F
FE00003F
FE00003F
FE00003F
FE00007F
FE00007F
7F0000FE
7FE007FE
3FFFFFFC
3FFFFFFC
1FFFFFF8
0FFFFFF0
03FFFFC0
00FFFF00
ENDCHAR
STARTCHAR Udieresis
ENCODING 220
SWIDTH 841 0
DWIDTH 38 0
BBX 32 36 3 0
BITMAP
03F81F80
03F81F80
00000000
00000000
FC00003F
FC00003F
FC00003F
FC00003F
FC00003F
FC00003F
FC00003F
FC00003F
FC00003F
FC00003F
FC00003F
FC00003F
FC00003F
FC00003F
FC00003F
FC00003F
FC00003F
FC00003F
FC00003F
FC00003F
FC00003F
FC00003F
FE00007F
FE00007F
7F0000FE
7FE007FE
7FFFFFFC
3FFFFFFC
1FFFFFF8
0FFFFFF0
07FFFFC0
00FFFF00
ENDCHAR
STARTCHAR agrave
ENCODING 224
SWIDTH 752 0
DWIDTH 34 0
BBX 32 39 1 0
BITMAP
000C0000
001E0000
000F0000
00078000
00038000
00000000
00000000
000FF000
000FF000
000FF000
001FF800
001FF800
003FFC00
003FFC00
003FFC00
007FFE00
007FFE00
00FE7F00
00FE7F00
00FC7F00
01FC3F80
01FC3F80
01F81F80
03F81FC0
03F01FC0
07F00FE0
07F00FE0
07E007E0
0FFFFFF0
0FFFFFF0
1FFFFFF8
1FFFFFF8
1FFFFFF8
3FFFFFFC
3F8001FC
7F0000FE
7F0000FE
7E0000FE
FE00007F
ENDCHAR
STARTCHAR aacute
ENCODING 225
SWIDTH 750 0
DWIDTH 34 0
BBX 32 39 1 0
BITMAP
00002000
00007000
0000F000
0001C000
00018000
00000000
00000000
000FE000
000FF000
001FF000
001FF800
001FF800
003FF800
003FFC00
003FFC00
007FFC00
007EFE00
00FEFE00
00FE7F00
00FC7F00
01FC3F00
01F83F80
03F83F80
03F81FC0
03F01FC0
07F00FC0
07F00FE0
0FE00FE0
0FFFFFF0
0FFFFFF0
1FFFFFF0
1FFFFFF8
3FFFFFF8
3FFFFFFC
3F0001FC
7F0001FC
7F0000FE
FE0000FE
FE00007F
ENDCHAR
STARTCHAR acircumflex
ENCODING 226
SWIDTH 764 0
DWIDTH 34 0
BBX 32 40 1 0
BITMAP
00018000
0003C000
00076000
000E3000
001C1800
00180800
00000000
00000000
0007F000
000FF000
000FF800
001FF800
001FF800
001FFC00
003FFC00
003FFE00
007FFE00
007F7E00
007F7F00
00FE7F00
00FE3F80
01FC3F80
01FC3F80
01FC1FC0
03F81FC0
03F80FE0
07F00FE0
07F00FE0
07F007F0
0FFFFFF0
0FFFFFF0
1FFFFFF8
1FFFFFF8
1FFFFFFC
3FFFFFFC
3F8000FC
3F0000FE
7F0000FE
7F00007F
FE00007F
ENDCHAR
STARTCHAR atilde
ENCODING 227
SWIDTH 776 0
DWIDTH 35 0
BBX 31 40 2 0
BITMAP
00180000
007E0800
00FF9E00
01FFFE00
0063FC00
0000F800
00000000
00000000
000FE000
001FF000
001FF000
001FF000
003FF800
003FF800
007FFC00
007FFC00
007FFC00
00FEFE00
00FEFE00
01FC7E00
01FC7F00
01FC7F00
03F83F80
03F83F80
07F01F80
07F01FC0
07F01FC0
0FE00FE0
0FE00FE0
0FFFFFE0
1FFFFFF0
1FFFFFF0
3FFFFFF8
3FFFFFF8
3FFFFFF8
7F0001FC
7F0001FC
FE0000FE
FE0000FE
FE0000FE
ENDCHAR
STARTCHAR adieresis
ENCODING 228
SWIDTH 762 0
DWIDTH 34 0
BBX 32 37 1 0
BITMAP
01FC3F80
01FC3F80
00000000
00000000
00000000
000FF000
000FF000
000FF800
001FF800
001FF800
001FFC00
003FFC00
003FFE00
007FFE00
007FFE00
007E7F00
00FE7F00
00FE3F00
01FC3F80
01FC3F80
01FC1FC0
03F81FC0
03F80FC0
07F00FE0
07F00FE0
07F007F0
0FFFFFF0
0FFFFFF0
1FFFFFF8
1FFFFFF8
1FFFFFFC
3FFFFFFC
3F8000FC
7F0000FE
7F0000FE
7F00007F
FE00007F
ENDCHAR
STARTCHAR aring
ENCODING 229
SWIDTH 776 0
DWIDTH 35 0
BBX 31 43 2 0
BITMAP
00010000
000FC000
001C6000
00183000
00183000
00183000
00183000
001C6000
000FC000
00010000
00000000
000FE000
001FF000
001FF000
001FF000
003FF800
003FF800
007FFC00
007FFC00
007FFC00
00FEFE00
00FEFE00
01FC7E00
01FC7F00
01FC7F00
03F83F80
03F83F80
07F01F80
07F01FC0
07F01FC0
0FE00FE0
0FE00FE0
0FFFFFE0
1FFFFFF0
1FFFFFF0
3FFFFFF8
3FFFFFF8
3FFFFFF8
7F0001FC
7F0001FC
FE0000FE
FE0000FE
FE0000FE
ENDCHAR
STARTCHAR ae
ENCODING 230
SWIDTH 1262 0
DWIDTH 57 0
BBX 52 32 2 0
BITMAP
000FFFFFFFFFF0
000FFFFFFFFFF0
000FFFFFFFFFF0
001FFFFFFFFFF0
001FFFFFFFFFF0
003FFFFFFFFFF0
003F8FC0000000
003F0FC0000000
007F0FC0000000
007F0FC0000000
00FE0FC0000000
00FE0FC0000000
00FE0FC0000000
01FC0FFFFE0000
01FC0FFFFE0000
03F80FFFFE0000
03F80FFFFE0000
03F80FFFFE0000
07F00FFFFE0000
07F00FC0000000
0FE00FC0000000
0FFFFFC0000000
0FFFFFC0000000
1FFFFFC0000000
1FFFFFC0000000
1FFFFFC0000000
3FFFFFFFFFFFF0
3F800FFFFFFFF0
7F000FFFFFFFF0
7F000FFFFFFFF0
7E000FFFFFFFF0
FE000FFFFFFFF0
ENDCHAR
STARTCHAR ccedilla
ENCODING 231
SWIDTH 830 0
DWIDTH 37 0
BBX 32 38 3 -6
BITMAP
00FFFF00
07FFFFC0
0FFFFFF0
1FFFFFF8
3FFFFFFC
7FFFFFFC
7FC003FE
FF0000FE
FE0000FF
FC00007F
FC00007F
FC000000
FC000000
FC000000
FC000000
FC000000
FC000000
FC000000
FC000000
FC000000
FC000000
FC00007F
FE00007F
FE00007F
FF0000FE
7FE007FE
7FFFFFFC
3FFFFFFC
1FFFFFF8
0FFFFFF0
07FFFFC0
00FFFF00
00018000
00018000
00018000
00018000
00038000
00038000
ENDCHAR
STARTCHAR egrave
ENCODING 232
SWIDTH 788 0
DWIDTH 35 0
BBX 32 39 2 0
BITMAP
00060000
000F0000
000F8000
0003C000
00018000
00000000
00000000
FFFFFFFF
FFFFFFFF
FFFFFFFF
FFFFFFFF
FFFFFFFF
FFFFFFFF
FE000000
FE000000
FE000000
FE000000
FE000000
FE000000
FE000000
FFFFF000
FFFFF000
FFFFF000
FFFFF000
FFFFF000
FFFFF000
FE000000
FE000000
FE000000
FE000000
FE000000
FE000000
FE000000
FFFFFFFF
FFFFFFFF
FFFFFFFF
FFFFFFFF
FFFFFFFF
FFFFFFFF
ENDCHAR
STARTCHAR eacute
ENCODING 233
SWIDTH 791 0
DWIDTH 36 0
BBX 32 39 2 0
BITMAP
00003000
00007800
0000F000
0001E000
0001C000
00000000
00000000
FFFFFFFF
FFFFFFFF
FFFFFFFF
FFFFFFFF
FFFFFFFF
FFFFFFFF
FFFFFFFF
FE000000
FE000000
FE000000
FE000000
FE000000
FE000000
FFFFF000
FFFFF000
FFFFF000
FFFFF000
FFFFF000
FFFFF000
FE000000
FE000000
FE000000
FE000000
FE000000
FE000000
FE000000
FFFFFFFF
FFFFFFFF
FFFFFFFF
FFFFFFFF
FFFFFFFF
FFFFFFFF
ENDCHAR
STARTCHAR ecircumflex
ENCODING 234
SWIDTH 796 0
DWIDTH 36 0
BBX 32 40 2 0
BITMAP
00018000
0003C000
0007E000
000E7000
001C1800
00180800
00000000
00000000
FFFFFFFF
FFFFFFFF
FFFFFFFF
FFFFFFFF
FFFFFFFF
FFFFFFFF
FE000000
FE000000
FE000000
FE000000
FE000000
FE000000
FE000000
FFFFF000
FFFFF000
FFFFF000
FFFFF000
FFFFF000
FFFFF000
FE000000
FE000000
FE000000
FE000000
FE000000
FE000000
FE000000
FFFFFFFF
FFFFFFFF
FFFFFFFF
FFFFFFFF
FFFFFFFF
FFFFFFFF
ENDCHAR
STARTCHAR edieresis
ENCODING 235
SWIDTH 819 0
DWIDTH 37 0
BBX 32 36 3 0
BITMAP
03F81F80
03F81F80
00000000
00000000
FFFFFFFF
FFFFFFFF
FFFFFFFF
FFFFFFFF
FFFFFFFF
FFFFFFFF
FC000000
FC000000
FC000000
FC000000
FC000000
FC000000
FC000000
FFFFE000
FFFFE000
FFFFE000
FFFFE000
FFFFE000
FFFFE000
FC000000
FC000000
FC000000
FC000000
FC000000
FC000000
FC000000
FFFFFFFF
FFFFFFFF
FFFFFFFF
FFFFFFFF
FFFFFFFF
FFFFFFFF
ENDCHAR
STARTCHAR igrave
ENCODING 236
SWIDTH 258 0
DWIDTH 12 0
BBX 8 39 1 0
BITMAP
60
F0
78
3C
0C
00
00
3F
3F
3F
3F
3F
3F
3F
3F
3F
3F
3F
3F
3F
3F
3F
3F
3F
3F
3F
3F
3F
3F
3F
3F
3F
3F
3F
3F
3F
3F
3F
3F
ENDCHAR
STARTCHAR iacute
ENCODING 237
SWIDTH 260 0
DWIDTH 12 0
BBX 8 39 2 0
BITMAP
06
0F
1E
3C
18
00
00
FE
FE
FE
FE
FE
FE
FE
FE
FE
FE
FE
FE
FE
FE
FE
FE
FE
FE
FE
FE
FE
FE
FE
FE
FE
FE
FE
FE
FE
FE
FE
FE
ENDCHAR
STARTCHAR icircumflex
ENCODING 238
SWIDTH 299 0
DWIDTH 13 0
BBX 10 40 2 0
BITMAP
0C00
1E00
3700
6380
C1C0
80C0
0000
0000
3F00
3F00
3F00
3F00
3F00
3F00
3F00
3F00
3F00
3F00
3F00
3F00
3F00
3F00
3F00
3F00
3F00
3F00
3F00
3F00
3F00
3F00
3F00
3F00
3F00
3F00
3F00
3F00
3F00
3F00
3F00
3F00
ENDCHAR
STARTCHAR idieresis
ENCODING 239
SWIDTH 411 0
DWIDTH 19 0
BBX 17 37 1 0
BITMAP
FC1F80
FC1F80
001F80
000000
000000
07E000
07E000
07E000
07E000
07E000
07E000
07E000
07E000
07E000
07E000
07E000
07E000
07E000
07E000
07E000
07E000
07E000
07E000
07E000
07E000
07E000
07E000
07E000
07E000
07E000
07E000
07E000
07E000
07E000
07E000
07E000
07E000
ENDCHAR
STARTCHAR ntilde
ENCODING 241
SWIDTH 859 0
DWIDTH 39 0
BBX 33 40 3 0
BITMAP
000C000000
003F040000
007FCF0000
00FFFF0000
0031FE0000
00007C0000
0000000000
0000000000
FF00003F80
FF80003F80
FFE0003F80
FFF8003F80
FFFE003F80
FFFF003F80
FFFFC03F80
FFFFF03F80
FE7FFC3F80
FE1FFE3F80
FE0FFFBF80
FE03FFFF80
FE00FFFF80
FE007FFF80
FE001FFF80
FE0007FF80
FE0001FF80
FE0000FF80
FE00003F80
FE00003F80
FE00003F80
FE00003F80
FE00003F80
FE00003F80
FE00003F80
FE00003F80
FE00003F80
FE00003F80
FE00003F80
FE00003F80
FE00003F80
FE00003F80
ENDCHAR
STARTCHAR ograve
ENCODING 242
SWIDTH 830 0
DWIDTH 37 0
BBX 32 39 3 0
BITMAP
00180000
003C0000
001E0000
000F0000
00030000
00000000
00000000
00FFFF00
07FFFFC0
0FFFFFF0
1FFFFFF8
3FFFFFF8
7FFFFFFC
7FC007FE
FF0000FE
FE0000FE
FC00007F
FC00007F
FC00007F
FC00007F
FC00007F
FC00007F
FC00007F
FC00007F
FC00007F
FC00007F
FC00007F
FC00007F
FC00007F
FC00007F
FE0000FE
FF0000FE
7FC007FE
7FFFFFFC
3FFFFFF8
1FFFFFF8
0FFFFFF0
07FFFFC0
00FFFF00
ENDCHAR
STARTCHAR oacute
ENCODING 243
SWIDTH 830 0
DWIDTH 37 0
BBX 32 39 3 0
BITMAP
00008000
0001C000
0003C000
00070000
00060000
00000000
00000000
00FFFF00
07FFFFC0
0FFFFFF0
1FFFFFF8
3FFFFFF8
7FFFFFFC
7FC007FE
FF0000FE
FE0000FE
FC00007F
FC00007F
FC00007F
FC00007F
FC00007F
FC00007F
FC00007F
FC00007F
FC00007F
FC00007F
FC00007F
FC00007F
FC00007F
FC00007F
FE0000FE
FF0000FE
7FC007FE
7FFFFFFC
3FFFFFF8
1FFFFFF8
0FFFFFF0
07FFFFC0
00FFFF00
ENDCHAR
STARTCHAR ocircumflex
ENCODING 244
SWIDTH 830 0
DWIDTH 37 0
BBX 32 40 3 0
BITMAP
00030000
00078000
000FC000
001CE000
00383000
00301000
00000000
00000000
00FFFF00
07FFFFC0
0FFFFFF0
1FFFFFF8
3FFFFFF8
7FFFFFFC
7FC007FE
FF0000FE
FE0000FE
FC00007F
FC00007F
FC00007F
FC00007F
FC00007F
FC00007F
FC00007F
FC00007F
FC00007F
FC00007F
FC00007F
FC00007F
FC00007F
FC00007F
FE0000FE
FF0000FE
7FC007FE
7FFFFFFC
3FFFFFF8
1FFFFFF8
0FFFFFF0
07FFFFC0
00FFFF00
ENDCHAR
STARTCHAR otilde
ENCODING 245
SWIDTH 830 0
DWIDTH 37 0
BBX 32 40 3 0
BITMAP
00180000
007F0800
00FF9E00
00FFFE00
0063FC00
0000F800
00000000
00000000
00FFFF00
07FFFFC0
0FFFFFF0
1FFFFFF8
3FFFFFF8
7FFFFFFC
7FC007FE
FF0000FE
FE0000FE
FC00007F
FC00007F
FC00007F
FC00007F
FC00007F
FC00007F
FC00007F
FC00007F
FC00007F
FC00007F
FC00007F
FC00007F
FC00007F
FC00007F
FE0000FE
FF0000FE
7FC007FE
7FFFFFFC
3FFFFFF8
1FFFFFF8
0FFFFFF0
07FFFFC0
00FFFF00
ENDCHAR
STARTCHAR odieresis
ENCODING 246
SWIDTH 830 0
DWIDTH 37 0
BBX 32 36 3 0
BITMAP
03F81F80
03F81F80
00000000
00000000
00FFFF00
07FFFFC0
0FFFFFF0
1FFFFFF8
3FFFFFF8
7FFFFFFC
7FC007FE
FF0000FE
FE0000FE
FC00007F
FC00007F
FC00007F
FC00007F
FC00007F
FC00007F
FC00007F
FC00007F
FC00007F
FC00007F
FC00007F
FC00007F
FC00007F
FC00007F
FE0000FE
FF0000FE
7FC007FE
7FFFFFFC
3FFFFFF8
1FFFFFF8
0FFFFFF0
07FFFFC0
00FFFF00
ENDCHAR
STARTCHAR ugrave
ENCODING 249
SWIDTH 800 0
DWIDTH 36 0
BBX 32 39 2 0
BITMAP
000C0000
001E0000
000F0000
00078000
00018000
00000000
00000000
FE00003F
FE00003F
FE00003F
FE00003F
FE00003F
FE00003F
FE00003F
FE00003F
FE00003F
FE00003F
FE00003F
FE00003F
FE00003F
FE00003F
FE00003F
FE00003F
FE00003F
FE00003F
FE00003F
FE00003F
FE00003F
FE00003F
FE00007F
7E00007F
7F0000FE
7FE003FE
3FFFFFFC
3FFFFFFC
1FFFFFF8
0FFFFFF0
03FFFFC0
00FFFF00
ENDCHAR
STARTCHAR uacute
ENCODING 250
SWIDTH 841 0
DWIDTH 38 0
BBX 32 39 2 0
BITMAP
00003000
00007000
0000F000
0001C000
00018000
00000000
00000000
FC00003F
FC00003F
FC00003F
FC00003F
FC00003F
FC00003F
FC00003F
FC00003F
FC00003F
FC00003F
FC00003F
FC00003F
FC00003F
FC00003F
FC00003F
FC00003F
FC00003F
FC00003F
FC00003F
FC00003F
FC00003F
FE00003F
FE00007F
FE00007F
7F0000FE
7FE007FE
3FFFFFFC
3FFFFFFC
1FFFFFF8
0FFFFFF0
03FFFFC0
00FFFF00
ENDCHAR
STARTCHAR ucircumflex
ENCODING 251
SWIDTH 841 0
DWIDTH 38 0
BBX 32 40 3 0
BITMAP
00018000
0003C000
0007E000
000E7000
001C3800
00181800
00000000
00000000
FC00003F
FC00003F
FC00003F
FC00003F
FC00003F
FC00003F
FC00003F
FC00003F
FC00003F
FC00003F
FC00003F
FC00003F
FC00003F
FC00003F
FC00003F
FC00003F
FC00003F
FC00003F
FC00003F
FC00003F
FC00003F
FC00003F
FE00007F
FE00007F
7F0000FE
7FE007FE
7FFFFFFC
3FFFFFFC
1FFFFFF8
0FFFFFF0
07FFFFC0
00FFFF00
ENDCHAR
STARTCHAR udieresis
ENCODING 252
SWIDTH 825 0
DWIDTH 37 0
BBX 32 36 3 0
BITMAP
01F83F00
01F83F00
00000000
00000000
FC00007F
FC00007F
FC00007F
FC00007F
FC00007F
FC00007F
FC00007F
FC00007F
FC00007F
FC00007F
FC00007F
FC00007F
FC00007F
FC00007F
FC00007F
FC00007F
FC00007F
FC00007F
FC00007F
FC00007F
FC00007F
FC00007F
FC00007E
FE0000FE
FF0001FE
7FC007FC
7FFFFFFC
3FFFFFF8
1FFFFFF0
0FFFFFE0
07FFFFC0
01FFFF00
ENDCHAR
STARTCHAR ydieresis
ENCODING 255
SWIDTH 756 0
DWIDTH 34 0
BBX 31 36 2 0
BITMAP
07F03F80
07F03F80
00000000
00000000
FF0003FE
FF0003FC
7F8007F8
3FC00FF0
1FE00FF0
1FE01FE0
0FF03FC0
07F87F80
03FC7F80
03FCFF00
01FFFE00
00FFFC00
007FF800
007FF800
003FF000
001FE000
000FC000
000FC000
000FC000
000FC000
000FC000
000FC000
000FC000
000FC000
000FC000
000FC000
000FC000
000FC000
000FC000
000FC000
000FC000
000FC000
ENDCHAR
STARTCHAR dotlessi
ENCODING 305
SWIDTH 279 0
DWIDTH 13 0
BBX 6 32 3 0
BITMAP
FC
FC
FC
FC
FC
FC
FC
FC
FC
FC
FC
FC
FC
FC
FC
FC
FC
FC
FC
FC
FC
FC
FC
FC
FC
FC
FC
FC
FC
FC
FC
FC
ENDCHAR
STARTCHAR ij
ENCODING 307
SWIDTH 847 0
DWIDTH 38 0
BBX 32 32 3 0
BITMAP
FE00003F
FE00003F
FE00003F
FE00003F
FE00003F
FE00003F
FE00003F
FE00003F
FE00003F
FE00003F
FE00003F
FE00003F
FE00003F
FE00003F
FE00003F
FE00003F
FE00003F
FE00003F
FE00003F
FE00003F
FE00003F
FE3F003F
FE3F807F
FE3F807F
FE3FC0FF
FE1FFFFE
FE1FFFFE
FE0FFFFC
FE07FFF8
FE03FFF0
FE00FFC0
FE003F00
ENDCHAR
STARTCHAR OE
ENCODING 338
SWIDTH 1400 0
DWIDTH 63 0
BBX 58 32 3 0
BITMAP
00FFFC3FFFFFFFC0
03FFFF3FFFFFFFC0
0FFFFFFFFFFFFFC0
1FFFFFFFFFFFFFC0
3FFFFFFFFFFFFFC0
3FFFFFFFFFFFFFC0
7FE007FF80000000
7F0000FF80000000
7E00007F80000000
FE00007F80000000
FE00003F80000000
FC00003F80000000
FC00003F80000000
FC00003FFFFC0000
FC00003FFFFC0000
FC00003FFFFC0000
FC00003FFFFC0000
FC00003FFFFC0000
FC00003FFFFC0000
FC00003F80000000
FC00003F80000000
FE00003F80000000
FE00007F80000000
FE00007F80000000
7F0000FF80000000
7FE003FF80000000
3FFFFFFFFFFFFFC0
3FFFFFFFFFFFFFC0
1FFFFFFFFFFFFFC0
0FFFFFFFFFFFFFC0
03FFFF3FFFFFFFC0
00FFFC3FFFFFFFC0
ENDCHAR
STARTCHAR oe
ENCODING 339
SWIDTH 1430 0
DWIDTH 64 0
BBX 58 32 3 0
BITMAP
00FFFC3FFFFFFFC0
03FFFF3FFFFFFFC0
0FFFFFFFFFFFFFC0
1FFFFFFFFFFFFFC0
3FFFFFFFFFFFFFC0
3FFFFFFFFFFFFFC0
7FE007FF80000000
7F0000FF80000000
7E00007F80000000
FE00007F80000000
FE00003F80000000
FC00003F80000000
FC00003F80000000
FC00003FFFFC0000
FC00003FFFFC0000
FC00003FFFFC0000
FC00003FFFFC0000
FC00003FFFFC0000
FC00003FFFFC0000
FC00003F80000000
FC00003F80000000
FE00003F80000000
FE00007F80000000
FE00007F80000000
7F0000FF80000000
7FE003FF80000000
3FFFFFFFFFFFFFC0
3FFFFFFFFFFFFFC0
1FFFFFFFFFFFFFC0
0FFFFFFFFFFFFFC0
03FFFF3FFFFFFFC0
00FFFC3FFFFFFFC0
ENDCHAR
STARTCHAR Ydieresis
ENCODING 376
SWIDTH 756 0
DWIDTH 34 0
BBX 31 36 2 0
BITMAP
07F03F80
07F03F80
00000000
00000000
FF0003FE
FF0003FC
7F8007F8
3FC00FF0
1FE00FF0
1FE01FE0
0FF03FC0
07F87F80
03FC7F80
03FCFF00
01FFFE00
00FFFC00
007FF800
007FF800
003FF000
001FE000
000FC000
000FC000
000FC000
000FC000
000FC000
000FC000
000FC000
000FC000
000FC000
000FC000
000FC000
000FC000
000FC000
000FC000
000FC000
000FC000
ENDCHAR
STARTCHAR circumflex
ENCODING 710
SWIDTH 833 0
DWIDTH 37 0
BBX 10 6 13 34
BITMAP
0C00
1E00
3B00
7180
E0C0
C040
ENDCHAR
STARTCHAR dotaccent
ENCODING 729
SWIDTH 833 0
DWIDTH 37 0
BBX 1 1 0 0
BITMAP
00
ENDCHAR
STARTCHAR ogonek
ENCODING 731
SWIDTH 833 0
DWIDTH 37 0
BBX 1 1 0 0
BITMAP
00
ENDCHAR
STARTCHAR endash
ENCODING 8211
SWIDTH 833 0
DWIDTH 37 0
BBX 22 5 3 12
BITMAP
FFFFFC
FFFFFC
FFFFFC
FFFFFC
FFFFFC
ENDCHAR
STARTCHAR emdash
ENCODING 8212
SWIDTH 833 0
DWIDTH 37 0
BBX 32 5 3 12
BITMAP
FFFFFFFF
FFFFFFFF
FFFFFFFF
FFFFFFFF
FFFFFFFF
ENDCHAR
STARTCHAR quoteleft
ENCODING 8216
SWIDTH 261 0
DWIDTH 12 0
BBX 6 8 3 24
BITMAP
0C
1C
7C
FC
FC
FC
FC
FC
ENDCHAR
STARTCHAR quoteright
ENCODING 8217
SWIDTH 261 0
DWIDTH 12 0
BBX 6 8 3 24
BITMAP
FC
FC
FC
FC
FC
F8
E0
80
ENDCHAR
STARTCHAR quotesinglbase
ENCODING 8218
SWIDTH 833 0
DWIDTH 37 0
BBX 1 1 0 0
BITMAP
00
ENDCHAR
STARTCHAR quotedblleft
ENCODING 8220
SWIDTH 440 0
DWIDTH 20 0
BBX 14 8 3 24
BITMAP
0C0C
1C1C
7C7C
FCFC
FCFC
FCFC
FCFC
FCFC
ENDCHAR
STARTCHAR quotedblright
ENCODING 8221
SWIDTH 440 0
DWIDTH 20 0
BBX 14 8 3 24
BITMAP
FCFC
FCFC
FCFC
FCFC
FCFC
F8F8
E0E0
8080
ENDCHAR
STARTCHAR bullet
ENCODING 8226
SWIDTH 490 0
DWIDTH 22 0
BBX 16 16 3 8
BITMAP
07E0
0FF8
3FFC
3FFE
7FFF
7FFF
FFFF
FFFF
FFFF
FFFF
7FFF
7FFE
3FFE
3FFC
0FF8
03E0
ENDCHAR
STARTCHAR ellipsis
ENCODING 8230
SWIDTH 771 0
DWIDTH 35 0
BBX 29 5 3 0
BITMAP
FC0F81F8
FC0F81F8
FC0F81F8
FC0F81F8
FC0F81F8
ENDCHAR
STARTCHAR Euro
ENCODING 8364
SWIDTH 580 0
DWIDTH 26 0
BBX 20 32 3 0
BITMAP
0000F0
0007F0
001FF0
003FF0
007FF0
00FF00
01FC00
03F800
03F000
FFFFF0
FFFFF0
FFFFF0
FFFFF0
FFFFF0
0F8000
0F8000
0F8000
0F8000
FFFFF0
FFFFF0
FFFFF0
FFFFF0
FFFFF0
03F000
03F800
01FC00
00FF00
007FF0
003FF0
001FF0
0007F0
0000F0
ENDCHAR
STARTCHAR trademark
ENCODING 8482
SWIDTH 529 0
DWIDTH 24 0
BBX 18 8 3 24
BITMAP
FF70C0
FF79C0
187BC0
186EC0
1864C0
1860C0
1860C0
1860C0
ENDCHAR
STARTCHAR .notdef
ENCODING -1
SWIDTH 500 0
DWIDTH 23 0
BBX 1 1 0 0
BITMAP
00
ENDCHAR
STARTCHAR .null
ENCODING -1
SWIDTH 0 0
DWIDTH 0 0
BBX 1 1 0 0
BITMAP
00
ENDCHAR
STARTCHAR nonmarkingreturn
ENCODING -1
SWIDTH 500 0
DWIDTH 23 0
BBX 1 1 0 0
BITMAP
00
ENDCHAR
STARTCHAR NULL
ENCODING -1
SWIDTH 0 0
DWIDTH 0 0
BBX 1 1 0 0
BITMAP
00
ENDCHAR
ENDFONT
